<?xml version="1.0" encoding="UTF-8" standalone="no"?>
<svg width="32px" height="32px" viewBox="0 0 32 32" version="1.1" xmlns="http://www.w3.org/2000/svg">
  <path d="M17.0137054,17.3137085 L22.9615672,17.3137085 C23.5124441,17.3137085 23.9590179,16.8698437 23.9590179,16.3137085 C23.9590179,15.7614237 23.5102265,15.3137085 22.9671655,15.3137085 L17.0137054,15.3137085 L17.0137054,10.7703735 L17.0137054,9.31292821 C17.0137054,8.7610744 16.5698406,8.3137085 16.0137054,8.3137085 C15.4614207,8.3137085 15.0137054,8.75681963 15.0137054,9.31115921 L15.0137054,15.3137085 L10.4703705,15.3137085 L9.01292516,15.3137085 C8.46107135,15.3137085 8.01370545,15.7575733 8.01370545,16.3137085 C8.01370545,16.8659932 8.45681657,17.3137085 9.01115616,17.3137085 L15.0137054,17.3137085 L15.0137054,23.2615703 C15.0137054,23.8124471 15.4575703,24.259021 16.0137054,24.259021 C16.5659902,24.259021 17.0137054,23.8102296 17.0137054,23.2671685 L17.0137054,17.3137085 Z" id="Rectangle-348" stroke="none" fill="#fff" fill-rule="evenodd" transform="translate(16.013705, 16.313708) rotate(-225.000000) translate(-16.013705, -16.313708)"></path>
  <path d="M32,16 C32,24.836556 24.836556,32 16,32 C7.163444,32 0,24.836556 0,16 C0,7.163444 7.163444,0 16,0 C24.836556,0 32,7.163444 32,16 Z M2,16 C2,23.7319865 8.2680135,30 16,30 C23.7319865,30 30,23.7319865 30,16 C30,8.2680135 23.7319865,2 16,2 C8.2680135,2 2,8.2680135 2,16 Z" stroke="none" fill="#95909E" fill-rule="nonzero"></path>
</svg>