<svg xmlns="http://www.w3.org/2000/svg" xmlns:xlink="http://www.w3.org/1999/xlink" aria-hidden="true" role="img" width="1em" height="1em" preserveAspectRatio="xMidYMid meet" viewBox="0 0 24 24">
<g stroke-width="1.5" fill="none">
<path d="M14.571 15.004l.858 1.845s3.857.819 3.857 2.767C19.286 21 17.57 21 17.57 21H13l-2.25-1.25" stroke="currentColor" stroke-linecap="round" stroke-linejoin="round"/><path d="M9.429 15.004l-.857 1.845s-3.858.819-3.858 2.767C4.714 21 6.43 21 6.43 21H8.5l2.25-1.25L13.5 18" stroke="currentColor" stroke-linecap="round" stroke-linejoin="round"/>
<path d="M3 15.926s2.143-.461 3.429-.922C7.714 8.546 11.57 9.007 12 9.007c.429 0 4.286-.461 5.571 5.997c1.286.46 3.429.922 3.429.922" stroke="currentColor" stroke-linecap="round" stroke-linejoin="round"/><path d="M12 7a2 2 0 1 0 0-4a2 2 0 0 0 0 4z" stroke="currentColor" stroke-linecap="round" stroke-linejoin="round"/>
</g>
</svg>