<?xml version="1.0" encoding="utf-8"?>
<!-- Generator: Adobe Illustrator 24.0.3, SVG Export Plug-In . SVG Version: 6.00 Build 0)  -->
<!DOCTYPE svg PUBLIC "-//W3C//DTD SVG 1.1//EN" "http://www.w3.org/Graphics/SVG/1.1/DTD/svg11.dtd" [
	<!ENTITY ns_extend "http://ns.adobe.com/Extensibility/1.0/">
	<!ENTITY ns_ai "http://ns.adobe.com/AdobeIllustrator/10.0/">
	<!ENTITY ns_graphs "http://ns.adobe.com/Graphs/1.0/">
	<!ENTITY ns_vars "http://ns.adobe.com/Variables/1.0/">
	<!ENTITY ns_imrep "http://ns.adobe.com/ImageReplacement/1.0/">
	<!ENTITY ns_sfw "http://ns.adobe.com/SaveForWeb/1.0/">
	<!ENTITY ns_custom "http://ns.adobe.com/GenericCustomNamespace/1.0/">
	<!ENTITY ns_adobe_xpath "http://ns.adobe.com/XPath/1.0/">
]>
<svg version="1.1" id="Слой_1" xmlns:x="&ns_extend;" xmlns:i="&ns_ai;" xmlns:graph="&ns_graphs;"
	 xmlns="http://www.w3.org/2000/svg" xmlns:xlink="http://www.w3.org/1999/xlink" x="0px" y="0px" viewBox="0 0 1563.4 1700"
	 style="enable-background:new 0 0 1563.4 1700;" xml:space="preserve">
<style type="text/css">
	.st0{fill:#46514D;}
	.st1{fill:#73c6cd;}
</style>
<metadata>
	<sfw  xmlns="&ns_sfw;">
		<slices></slices>
		<sliceSourceBounds  bottomLeftOrigin="true" height="1282.9" width="1156" x="0" y="-0.1"></sliceSourceBounds>
	</sfw>
</metadata>
<title>Control Balance Exercise</title>
<g>
	<path class="st0" d="M502.3,380.4c-33.4,16.6-60,33.4-89.5,56.1c-66.3,54-107.9,105.8-148.1,181.3c-38.2,77.3-55.6,141.9-61.9,228
		c-3.9,89.5,6.8,157.4,37.6,241.6c27.2,68.3,56.4,117.4,104.3,173.2c8.9,10.1,18.4,19.8,28.4,28.9c54.5,46.4,176.6,97.2,123.5,52.4
		c-34.6-26-65.1-45.4-99.3-74.3c-45.4-39.7-78.7-76.6-111.6-127.2c-11.6-18.6-22-37.9-30.9-57.9c-34.6-80.9-46.6-148.1-44.1-236
		c5.2-85.3,22.2-149.1,59.6-225.8c39.5-75,80.6-126.3,145.7-180.4c22.3-17.8,46-33.9,70.8-48c47.5-24.7,90.1-40.6,143.4-47
		c14.6-1.4,28-2,42.5,0.2c-14.3-3.5-28.5-3.2-43.1-2C582.8,347.8,544.6,360.7,502.3,380.4L502.3,380.4z"/>
	<path class="st0" d="M1180.5,492.2c-44.6-33.3-84-56.2-135.1-78.3c-67-27.2-121.8-40-194-44.5c-74.6-2.6-131.6,5.4-202.9,28.3
		c-70.8,25-121.3,53.3-179.3,101c-26.5,22.6-50.8,47.6-72.7,74.6c-21,26-40.7,51.7-60.1,78.9c-5.1,7.3-60.3,96.8-44.6,40.5
		c5.9-18.1,14-34.1,23.4-50.7c39.4-65.6,82.4-109.6,143.1-155.4c3.4-2.5,6.8-5,10.2-7.4c59-41,109.1-66.4,177.6-88.9
		c72.4-21.7,130.3-29.2,205.7-26.1c72.8,4.9,128.2,18,195.6,45.8c45.4,19.9,80.9,40.4,120.8,69.8c18.1,13.2,34.9,26.4,51.8,41
		c27.8,24.2,54.3,51.9,82,74.9c-26.3-18.9-57.8-51.1-83.7-73.3C1205.8,511.8,1193.4,501.9,1180.5,492.2L1180.5,492.2z"/>
	<path class="st0" d="M1057.9,1461.9c31.7-15.5,61.6-34.3,89.4-56c66.4-54,107.9-105.8,148-181.3c38.1-77.4,55.6-141.9,62-228.1
		c3.8-89.5-6.9-157.4-37.6-241.6c-27.2-68.3-56.4-117.4-104.3-173.1c-8.9-10.1-18.4-19.7-28.3-28.8
		c-54.6-46.4-176.7-97.3-123.5-52.4c34.5,26,65.2,45.4,99.2,74.4c45.4,39.7,78.7,76.6,111.5,127.2c11.7,18.5,22,37.9,31,57.9
		c34.6,80.9,46.6,148.1,44.2,236c-5.2,85.3-22.2,149.1-59.7,225.9c-39.5,74.9-80.6,126.2-145.7,180.4c-22.3,17.8-45.9,33.8-70.7,48
		c-47.5,24.8-90.1,40.7-143.4,47.1c-14.6,1.4-27.9,1.9-42.5-0.2c14.3,3.5,28.5,3.1,43.1,2C977.4,1494.5,1015.5,1481.6,1057.9,1461.9
		L1057.9,1461.9z"/>
	<path class="st0" d="M379.6,1350.1c44.6,33.3,83.9,56.2,135.1,78.3c66.9,27.1,121.8,39.9,193.9,44.5c74.7,2.6,131.7-5.4,202.8-28.3
		c70.9-25,121.4-53.3,179.4-101c26.5-22.6,50.8-47.5,72.8-74.6c21-26.1,40.6-51.8,60.1-79c5.1-7.2,60.3-96.7,44.7-40.4
		c-6,18.1-14,34.1-23.4,50.7c-39.4,65.6-82.4,109.6-143.1,155.5c-3.4,2.4-6.8,4.9-10.3,7.4c-59,41-109,66.4-177.6,88.8
		c-72.4,21.7-130.2,29.2-205.7,26.1c-72.8-5-128.1-18-195.5-45.8c-45.4-19.9-80.9-40.4-120.8-69.8c-18.1-13.1-34.8-26.4-51.7-41
		c-27.8-24.2-54.4-51.8-82-74.8c26.3,18.9,57.8,51.1,83.7,73.3C354.3,1330.4,366.7,1340.3,379.6,1350.1L379.6,1350.1z"/>
	<path class="st0" d="M715.3,1105.2c43.5,9.3-24.1-73.8,85.9-41.4c47,13.8,91,43.2,68.6,98.4c-18.9,46.2-59.2,47.6-101.2,34.7
		c-22.4-7-24.2-9.8-39.6,6.4c14.5-17.6,17-14.9,40.4-9.4c35,8.1,69.3,9.1,86.9-28.1c28.8-60.6-40.4-94.5-89.3-103
		C712.2,1053.1,752.4,1115.9,715.3,1105.2L715.3,1105.2z"/>
	<path class="st0" d="M500,934.1c-2-57.2-2-78,43.5-112.1c48.7-36.5,91.1-175,98.1-235.7c9.1-78.9,15.6-89.4,47.1-158.9
		c-27.9,45.8-49.4,78.3-62.2,132.2c-12.8,53.9-16.4,60.8-35.7,110.6c-14.8,37.9-28.9,112.7-57.2,139.6
		C489.4,851.7,490.6,874.2,500,934.1L500,934.1z"/>
	<path class="st0" d="M703.9,808.1c41.2,25,78.3,48.9,116.3,78.9c71,55.9,72.5,32.7,149.9,51.1c33.8,8,142,55.4,154.9,53.8
		c-4.7,0-6.5-1-11.1-3.1c-59.8-27.5-93.6-61.4-165.4-82.8c-63.8-19-54.4,0.6-116.8-35.5C789.2,845.8,748.8,827.3,703.9,808.1
		L703.9,808.1z"/>
	<path class="st0" d="M642,973.4c-6.6,24.3-23.6,65.2,5.2,81.7c27.2,15.7,26.6,15.7,49.5,38.9c-8.3-19.1-22.8-51-40.2-63.9
		C643,1019.9,643.7,988.8,642,973.4L642,973.4z"/>
	<path class="st0" d="M667.6,855.6c3.2-16.6,5.3-33.4,6.2-50.3c2.7-65-5.9-122.5,0-189.8c8.5-66.5,30.4-125.6,38.3-188.2
		c1.9-14.9,2.8-28.5,2-43.4c-1.8-28.4-3.1-56.8,4.7-84.4c6.3-19,49.2-91,64.5-81.5c9.2,24.4-6.9,65.1-11.9,91.8
		c-3.9,29.6-5.7,57-11,86.9c-2.5,13.4-5.4,26-9,39.1c-20.9,63.2-46.4,115.5-60.2,182c-11,66.2-5.4,122.7-10,188
		c-1.4,16.2-3.7,32.4-7.1,48.3c-7.1,30.8-15.7,57-30.5,85c-12.4,23.1-19.9,32.7-40.3,48.5c19.2-16.6,26.3-26.4,38-49.6
		C654,910.5,661.5,885.2,667.6,855.6L667.6,855.6z"/>
	<path class="st1" d="M662.6,589.4c-2.6-62,13.5-115.1,30.6-173.7c6.8-26.6,11.9-52.6,17.8-79.1c5.7-20.7,33.1-57.8,38-37.8
		c0.7,11.1-24.1,60.1-30,72.9c-6.8,15-12.2,30.2-17.7,45.7c-20.3,50.1-35.8,112.9-36.5,167c0.6,17.6,4.1,43.3,17,56.7
		C668.4,629.9,663.8,605.7,662.6,589.4L662.6,589.4z"/>
	<path class="st0" d="M662.6,589.4l-0.6,1c-3.2-45.6,8.4-95.6,20.6-139.4c3.3-11.8,6.7-23.6,10.1-35.4c7-26.7,12-52.8,17.8-79.6
		c2.7-11.9,8.1-23.6,16.3-32.7c3.9-4.1,12.1-11.1,18.3-10.4c1.1,0.1,2.2,0.6,2.9,1.4c0.9,1.2,1.4,2.6,1.4,4.1c0.1,0.7,0.1,1.4,0,2.1
		c-0.3,2.2-0.8,4.5-1.4,6.6c-1.5,4.8-3.2,9.6-5.2,14.3c-7.3,17.4-15.7,34.2-23.6,51.2c-6.8,14.8-12.1,29.5-17.5,44.8
		c-6.6,16.1-12.3,32.5-17.1,49.2c-10.8,37.2-18.8,78-19.4,116.8c-0.2,0.3-0.3,0.5-0.5,0.8c0.1-0.3,0.3-0.7,0.5-1.1
		c0.6,17.3,4.1,43.2,16.8,56.3c-0.1,0.8-0.3,1.8-0.5,2.7c-13.7-10.9-18.3-35.7-19.6-52L662.6,589.4c0.3-0.4,0.4-0.8,0.7-1.1
		c1.3,15.9,5.6,40.4,18.9,51.2c-0.1,0.5-0.2,0.9-0.2,1.4c-0.1,0.4-0.3,0.8-0.4,1.3C668.5,629,665,602.5,664.4,585
		c0.5-39.4,8.7-81,19.6-118.7c4.8-16.7,10.5-33.2,17-49.3c5.6-15.8,11-31.4,18.1-46.8c5.9-13,12.3-25.7,18.2-38.8
		c2.6-6.1,5.4-12.3,7.8-18.6c0.9-2.4,1.8-4.9,2.6-7.2c0.5-1.7,0.9-3.5,1.1-5.3c0.1-0.4,0.1-0.9,0-1.3c0-1-0.3-1.9-1-2.6
		c-0.7-0.8-1.7-1.2-2.8-1.3c-6-0.6-14.1,6.4-17.9,10.4c-7.8,8.7-13.1,20.1-15.6,31.4c-5.9,26.1-10.6,52.9-17.7,78.5
		c-3.3,11.9-6.9,23.8-10.1,35.6c-12,43.1-23.5,92.2-20.3,137.1C662.9,588.7,662.8,589,662.6,589.4L662.6,589.4z"/>
	<path class="st1" d="M698.6,769.8c10.5-48.3,11.3-98.4,16.6-147.7c4.1-34.9,10.1-68.9,15.8-103.5c1.2-10.5-2.1-71.1-14.6-49.9
		c-6.4,14.7-2.5,62.5-2.6,80.9c-0.3,24.1-2.2,47.7-3.8,71.8c-3.3,48.1-5.2,95.7-12.2,143.4c-3.1,14.6-9.4,37.4-21.3,47.7
		C688.6,804.3,695.3,783.1,698.6,769.8L698.6,769.8z"/>
	<path class="st0" d="M698.6,769.8c-0.1-0.3-0.2-0.6-0.3-0.8c9.8-42.1,10.7-88.4,14.8-131.4c0.6-5.2,1.3-10.4,1.6-15.6
		c4.1-34.7,10.1-68.6,15.7-103.1c0.9-5.8,1.2-11.6,0.9-17.5c-0.2-8.1-1.4-16.1-3.8-23.9c-0.9-2.9-3.5-10.3-7-11.3
		c-0.8-0.3-1.6-0.1-2.2,0.5c-0.8,0.7-1.4,1.6-1.8,2.6c-0.2,0.7-0.5,1.3-0.7,2c-1.3,4.5-1.8,10.3-2.2,14.9
		c-0.6,10.6-0.4,21.4-0.1,31.9c0.2,10.2,0.8,20.5,0.7,30.6c-0.3,24.4-2.2,48.4-3.9,72.9c-0.8,10.6-1.4,21.4-2.1,32
		c-2.4,37.2-4.2,75.1-10.2,111.8l0,0c0,0.1,0,0.2,0.1,0.3c-3.2,15-9.6,37.8-21.5,48.2c0-0.4,0-0.9-0.1-1.3v-1.5
		c11.8-8,18.5-29.2,21.7-42.4C698.4,769,698.5,769.4,698.6,769.8c0.1,0.2,0.3,0.5,0.3,0.8c-3.3,13.5-10.2,35-22.3,43.2
		c0-0.8-0.1-1.7-0.2-2.5c11.7-10.6,17.8-32.6,20.9-47.5c0.1,0.3,0.3,0.7,0.4,1c-0.2-0.2-0.4-0.5-0.4-0.9c5.8-36.4,7.8-73.7,10-110.4
		c0.7-10.8,1.4-21.5,2.1-32.1c1.6-23.8,3.4-47.2,3.6-71.1c0.1-13.8-0.8-27.6-1-41.4c-0.1-7-0.1-14.1,0.4-21
		c0.2-5.7,1.1-11.3,2.5-16.8c0.2-1,0.6-2,1.1-2.9c0.6-1.5,1.6-3,2.7-4.2c0.8-0.5,1.8-0.7,2.7-0.5c2.4,0.7,4.1,3.9,5.1,6
		c2.9,6,4.6,14.4,5.4,21c1.1,9.2,1,18.5-0.3,27.6c-5.8,34.7-11.8,68.9-16,103.9c-0.8,5-1.2,10.5-1.6,15.5c-4.1,43.4-5,90.6-15,133
		C698.9,770.3,698.7,770,698.6,769.8L698.6,769.8z"/>
	<path class="st0" d="M533.4,1090c7.9,26.1,19,45.5,35,67.7c22,28.6,41.4,45.9,76.1,57.7c39.7,10.5,78,7.7,117.9,0.2
		c35.9-7.4,66.6-17,95.8-39.9c5.7-4.5,11-9.6,15.7-15.1c15.1-17.6,30-35.4,45.2-53c6.4-7.3,63.3-73,72.4-68.1
		c14.9,31.9-11.9,75.1-28.7,100.6c-19.2,26.6-37.8,44.4-65.4,62.4c-5.6,3.4-11,6.5-16.7,9.4c-39.1,18.8-71.7,25.5-114.4,29.5
		c-43.8,2.9-84.4,2.5-126.3-12.3c-36.5-14.9-56.4-34.6-78.7-66.4c-15.5-23-24.9-41.9-33.1-68.7c-1.8-6.3-3.2-12.3-4.4-18.7
		c-5.7-32.4-5.6-60.4-8.1-92.5c-1.9-15.9-3.6-24.2-11.6-38c9,13.4,10.9,21.7,13.1,37.9c4.1,31.5,4.8,59.5,11.7,91.4
		C530.4,1079.7,531.8,1084.8,533.4,1090L533.4,1090z"/>
	<path class="st1" d="M709,1213.6c15-5.9,30.1-11,45.6-15.9c35.1-10.6,66.7-20.5,100-36.2c13.9-7,27.3-14.9,40.2-23.6
		c8.3-5.1,56.4-24.3,48.8-5c-11.9,15.2-44.3,25.3-62.6,30.2c-7.2,1.9-14.3,4.1-21.4,6.4c-34.9,10.4-69,22.1-104.4,32.2
		c-13.9,4.1-28,8.3-41.9,12.5c-13.8,5.2-33.5,13.4-43.5,24.5C677.9,1227.2,696.1,1218.8,709,1213.6L709,1213.6z"/>
	<path class="st0" d="M709,1213.6c-0.3-0.1-0.6-0.2-0.9-0.3c15.3-6,30.8-11.1,46.5-16c20.7-6.3,40.9-12.5,61.3-20
		c13.2-5,25.7-10.1,38.5-16.1c13.9-7.2,27.4-15.2,40.4-24c8.9-5.9,18.8-10,29.2-12.3c5-1,15.5-2.4,19.8,0.9c0.9,0.7,1.4,1.6,1.5,2.7
		c0,1.6-0.4,3.1-1.3,4.4c-0.4,0.6-0.9,1.2-1.3,1.8c-1.5,1.7-3.1,3.2-4.9,4.7c-3.9,3-8.1,5.6-12.4,7.9c-14.4,7.6-29.3,12.4-45,16.6
		c-7,1.8-13.8,3.9-20.7,6c-17.8,5.2-35.6,11.2-53.3,16.8c-17,5.4-34,10.6-51.3,15.5c-13.8,4.1-27.6,8.2-41.3,12.5l-0.7-0.3
		c0.3,0.1,0.6,0.2,0.9,0.2c-13.6,5.1-33.5,13.4-43.1,24.6c-0.9-0.1-1.6-0.3-2.4-0.4c7.9-11.8,26.6-20.3,39.3-25.4
		C708.4,1213.4,708.7,1213.5,709,1213.6s0.5,0.2,0.8,0.2c-12.4,5.2-31,13.7-38.7,25.3c-0.4-0.1-0.9-0.2-1.3-0.3
		c-0.4,0-0.7-0.1-1.1-0.2c9.7-11.3,30.1-19.5,43.8-24.6c14.2-4.4,28.4-8.7,42.6-12.8c17.1-4.8,34.2-9.9,51.1-15.3
		c17.6-5.7,35.2-11.6,53-16.9c7.4-2.4,14.7-4.6,22.1-6.7c11.6-3,23-6.8,34-11.5c5.7-2.5,11.2-5.4,16.6-8.6c2.1-1.4,4.2-2.8,6.2-4.4
		c1.4-1.1,2.7-2.4,3.9-3.8c0.3-0.3,0.5-0.7,0.7-1.1c0.6-0.8,0.9-1.8,0.7-2.7c-0.1-1-0.6-1.9-1.4-2.5c-4.1-3.3-14.6-2-19.2-1.1
		c-10.1,2.1-19.7,6.1-28.2,11.7c-12.8,8.6-26.1,16.4-39.8,23.4c-12.9,6.1-25.4,11.3-38.8,16.3c-20.4,7.4-40.7,13.7-61.4,20
		c-15.2,5-30,9.9-44.9,15.7C709.5,1213.9,709.2,1213.8,709,1213.6L709,1213.6z"/>
	<path class="st1" d="M559.1,1188.5c17.8,35.2,42,55.3,78.3,70.4c51,17.7,99.1,14.9,150.8,2.2c0.1,0,1-0.4,1.3-0.4
		c18.4-5.7,58.7-34,37.1-34.1c-10.4,1.8-30.5,12.4-40.8,17c-9.5,4.8-19.3,9-29.3,12.5c-40.6,12.4-77.6,12.9-118-0.8
		c-34.6-13.8-56.2-32.1-75.8-63.7c-5-9.6-8.3-18.1-10.1-28.7c-1.1-6.6-1.5-12.5,0.3-19c-2.6,6.6-2.4,12.9-1.3,19.9
		C552.8,1172.4,555.3,1180.7,559.1,1188.5L559.1,1188.5z"/>
	<path class="st0" d="M559.1,1188.5c0.3,0.1,0.5,0.3,0.8,0.4c17.8,34.8,41.7,54.7,77.6,69.7c10.6,3.9,21.5,7,32.6,9
		c41.8,6.4,77.3,3.3,118.1-6.9c0.1,0,0.7-0.2,0.8-0.2c5.7-1.5,11.2-3.7,16.4-6.5c7.1-3.5,13.6-8.3,19.1-13.9c2-2.1,6.8-7.8,5.9-11.1
		c-0.1-0.7-0.7-1.3-1.4-1.5c-1-0.4-2-0.5-3-0.2l-1.9,0.3c-4.5,1.3-9,3-13.2,5.1c-8.4,3.9-16.6,7.9-25,11.7c-0.2,0.2-2.1,1.1-2.5,1.3
		c-8.4,4.2-17,7.8-25.9,11c-32.3,10.6-70.2,12.5-103.1,4.2c-5.6-1.4-10.7-3.1-16-5c-35-14.1-56.7-32.5-76.4-64.4v-0.1l-0.1-0.1
		c-4.7-9.3-7.9-17.5-9.8-27.8c-1.3-7.1-1.8-13.5,0-20.6c0.2,0.3,0.6,0.7,0.8,1.1c0.2,0.4,0.4,0.7,0.7,1.1
		c-2.4,6.1-2.2,11.8-1.4,18.3c1.2,9.4,3.8,17,7.8,25.7L559.1,1188.5l-0.7-0.3c-3.6-7.6-6.1-15.6-7.4-23.9
		c-1.2-7.5-1.5-14.3,1.2-21.4c0.4,0.6,1,1.3,1.5,1.9c-1.5,6.1-1.2,11.6-0.4,17.7c1.8,11.1,5.1,19.8,10.3,29.6
		c-0.2-0.2-0.5-0.3-0.8-0.4c0.2,0.1,0.5,0.1,0.7,0.2c19.6,31.3,41,49.2,75.2,63.1c5.3,2,10.6,3.6,16.1,5c32.2,8,69.4,6.4,101-4
		c10.3-3.6,20.3-7.9,30-12.9c1.8-0.7,3.4-1.5,5.2-2.4c6-2.8,12-5.8,18.2-8.5c4.8-2.3,9.8-4.1,14.9-5.6c0.9-0.3,1.9-0.4,2.8-0.5
		c1.5-0.3,3.1-0.3,4.6,0.1c0.8,0.4,1.4,1.1,1.6,2c0.6,2.2-1,5.2-2.4,7c-3.5,5.4-9.9,10.6-15.2,14.3c-7.7,5.2-16.3,9.1-25.3,11.5
		c-0.4,0.1-1.7,0.3-1.9,0.5c-41,10.3-76.4,13.2-118.4,6.9c-11.2-2-22.2-5-32.8-9c-36.6-15.2-60.9-35.7-78.8-71.2L559.1,1188.5
		L559.1,1188.5z"/>
	<path class="st0" d="M776.9,978.6c12.8,1.5,25.6,2.2,38.5,2.1c60.6-2,97.9-13.7,161.9-2.6c54.1,13.2,120.4,51.6,166.4,55.5
		c0.5,0,1,0.1,1.4,0.1c16.8,0.8,136.1,2.1,141.9,14c-18.5,56.6-116.2,42.7-156.2,31.7c-1.5-0.4-2.9-1-4.3-1.8
		c-53.5-22.5-97.5-62.7-153.4-81.7c-57.6-16.1-99.9-7.5-157.7-7.9c-37.7-0.7-75-8.7-109.7-23.5c-16.4-6.4-28-11.6-43-20.4
		c14.1,7.1,28.7,13.2,43.7,18.3C730.9,970.2,751.2,975.3,776.9,978.6L776.9,978.6z"/>
	<path class="st1" d="M988,963.2c64.8,1.9,117.6,33.9,174.3,62c7.9,3.4,15.5,6.9,23.6,9.9c10.1,4.5,50.7,33.1,32.2,39.8
		c-19.2,0.5-46.3-21.9-60.4-34l-0.3-0.3c-37.2-36.7-114.2-70.4-165.6-74.9c-14.9-0.3-29.9,1.6-42.5,9.9c-2.4,1.5-4.7,3.3-6.7,5.3
		c2-2.5,4.4-4.7,7.1-6.5C961.4,965.9,973.8,963.8,988,963.2L988,963.2z"/>
	<path class="st0" d="M988,963.2c-0.2-0.2-0.6-0.4-0.8-0.7c39.6-0.7,82.2,16.6,117.4,33.4c19.4,9.3,38.5,19.4,57.9,28.8
		c8,3.4,15.7,6.9,24,10.1c9.8,3.9,18.6,9.8,26.1,17.2c3.9,4,11,12.2,11.1,18.2c0.1,1.2-0.3,2.4-1.1,3.3c-1.1,1-2.5,1.7-4,1.9
		c-0.7,0.1-1.4,0.1-2.1,0.1c-2.2,0-4.5-0.3-6.6-0.9c-4.7-1.4-9.2-3.2-13.6-5.4c-15.1-7.9-25.9-16.4-38.5-27.5
		c-0.1-0.1-0.9-0.9-1.1-1.1c-18.3-18.2-43.7-33.1-66.7-44.3c-29.8-14.6-64.4-27-97.5-29.9c-0.1-0.2-0.4-0.5-0.5-0.7
		c0.2,0.2,0.5,0.5,0.7,0.7c-15.2-0.5-30.8,1.6-43.6,10.6c-1.9,1.3-3.6,2.7-5.2,4.2c-0.7-0.2-1.4-0.5-2.2-0.7c2.4-3,5.2-5.6,8.4-7.7
		c11.6-7.7,23.5-9.7,37.2-10.4C987.4,962.8,987.8,963,988,963.2c0.3,0.2,0.5,0.4,0.7,0.6c-13.9,0.4-28.2,3.2-39.4,12.2
		c-2,1.6-3.8,3.3-5.4,5.3c-0.3-0.1-0.8-0.2-1.2-0.3s-0.7-0.3-1.1-0.4c2.4-2.5,5.1-4.6,8.2-6.3c13.1-7.9,26.4-9.3,41.6-9.2
		c33.7,2.8,68.7,15.6,99,30.4c25,12.5,47.5,25.4,67.8,44.8c0.1,0,0.1,0.1,0.3,0.2c9.4,8.1,18.5,15.7,29.2,22.2
		c5.3,3.4,10.8,6.3,16.5,8.7c2.3,1,4.7,1.8,7.1,2.4c1.7,0.5,3.5,0.8,5.3,0.9h1.2c1,0,1.9-0.5,2.5-1.3c0.7-0.8,1.1-2,1.1-3.1
		c0-5.8-6.8-13.9-10.7-17.8c-7-7.1-15.9-13.4-25.1-16.9c-7.9-3.1-15.5-6.3-23.2-9.8c-19.5-9.6-38.6-19.5-58.1-28.9
		c-34.6-16.6-76.4-33.6-115.4-33C988.5,963.6,988.3,963.3,988,963.2L988,963.2z"/>
	<path class="st1" d="M845.8,1001.6c41.7,9.3,83.7,9.7,126.1,17.6c24.4,5.1,47.5,11.9,71.4,18.9c10.7,2.6,61.8,3.9,46.6-10.3
		c-11.9-8.2-53-8.1-68.6-9.2c-16-1.3-31.9-3.4-47.9-5.2c-41.2-5.1-82.4-7.1-123.5-12.9c-13.6-3-32.4-8.6-41.5-20
		C815.8,992.1,833.1,998.4,845.8,1001.6L845.8,1001.6z"/>
	<path class="st0" d="M845.8,1001.6c0.3-0.1,0.5-0.3,0.7-0.5c34.2,8.4,71.3,9.1,106.3,14.3c6.5,1.1,12.9,2.1,19.2,3.4
		c24.3,5,47.3,11.7,71.1,18.7c4.8,1.4,9.7,2.1,14.6,2.4c7.2,0.5,14.5,0,21.6-1.6c3.3-0.8,10.1-2.7,11.6-6c0.5-0.6,0.6-1.5,0.2-2.2
		c-0.4-0.9-1.1-1.6-2-2.1c-0.5-0.4-1-0.7-1.5-0.9c-3.7-1.8-8.7-2.8-12.8-3.5c-9.1-1.6-18.2-2.6-27.4-3c-8.5-0.4-17.1-0.6-25.6-1.2
		c-16.3-1.4-32.4-3.5-48.6-5.4c-10.5-1.6-22-2.6-32.7-3.7c-30.4-2.9-61.1-4.7-91.2-9.3h-0.1c-13.8-3-32.7-8.8-41.9-20.1
		c0.3-0.1,0.7-0.1,1-0.2s0.8-0.1,1.2-0.1c7.3,11.4,24.6,17.6,37.1,20.7C846.3,1001.3,846,1001.5,845.8,1001.6
		c-0.3,0.1-0.5,0.3-0.6,0.4c-12.9-3.3-30.5-9.6-37.9-21.3l2.1-0.3c9.4,11.1,27.5,16.6,41.2,19.6c-0.2,0.1-0.5,0.3-0.8,0.5
		c0.2-0.2,0.5-0.4,0.7-0.5c29.8,4.5,60.1,6.4,90.1,9.2c11,1,21.8,2.2,32.8,3.6c15.9,1.8,31.4,3.8,47.4,5.1
		c11.6,0.8,23.3,0.8,34.9,1.8c6,0.5,12.1,1.2,18.1,2.2c4.9,0.7,9.7,2.1,14.2,4.1c0.8,0.4,1.6,0.9,2.4,1.4c1.2,0.8,2.3,1.8,3.1,3.1
		c0.3,0.9,0.2,1.9-0.1,2.8c-1.2,2.2-4.2,3.7-6.5,4.5c-5.8,2.4-13.5,3.2-19.7,3.4c-8,0.3-15.9-0.6-23.6-2.7
		c-24-7.1-47.1-13.9-71.7-19c-6.1-1.3-12.9-2.4-19.1-3.3c-35.3-5.2-73-5.8-107.5-14.3C845.3,1001.9,845.5,1001.8,845.8,1001.6
		L845.8,1001.6z"/>
</g>
</svg>
