<?xml version="1.0" encoding="utf-8"?>
<!-- Generator: Adobe Illustrator 24.0.3, SVG Export Plug-In . SVG Version: 6.00 Build 0)  -->
<!DOCTYPE svg PUBLIC "-//W3C//DTD SVG 1.1//EN" "http://www.w3.org/Graphics/SVG/1.1/DTD/svg11.dtd" [
	<!ENTITY ns_extend "http://ns.adobe.com/Extensibility/1.0/">
	<!ENTITY ns_ai "http://ns.adobe.com/AdobeIllustrator/10.0/">
	<!ENTITY ns_graphs "http://ns.adobe.com/Graphs/1.0/">
	<!ENTITY ns_vars "http://ns.adobe.com/Variables/1.0/">
	<!ENTITY ns_imrep "http://ns.adobe.com/ImageReplacement/1.0/">
	<!ENTITY ns_sfw "http://ns.adobe.com/SaveForWeb/1.0/">
	<!ENTITY ns_custom "http://ns.adobe.com/GenericCustomNamespace/1.0/">
	<!ENTITY ns_adobe_xpath "http://ns.adobe.com/XPath/1.0/">
]>
<svg version="1.1" id="Слой_1" xmlns:x="&ns_extend;" xmlns:i="&ns_ai;" xmlns:graph="&ns_graphs;"
	 xmlns="http://www.w3.org/2000/svg" xmlns:xlink="http://www.w3.org/1999/xlink" x="0px" y="0px" viewBox="0 0 1803.1 1650"
	 style="enable-background:new 0 0 1803.1 1650;" xml:space="preserve">
<style type="text/css">
	.st0{fill:#46514D;}
	.st1{fill:#73c6cd;}
</style>
<metadata>
	<sfw  xmlns="&ns_sfw;">
		<slices></slices>
		<sliceSourceBounds  bottomLeftOrigin="true" height="1211.4" width="1323.8" x="0" y="0"></sliceSourceBounds>
	</sfw>
</metadata>
<title>Side Bend</title>
<g>
	<path class="st0" d="M1160.3,248.9c-35.1-12.4-65.8-19.8-102.6-25c-84.9-10-151.1-3.7-233.2,20.2
		c-82.1,26.6-140.5,59.1-206.6,114.5c-66.9,59.6-108.1,114.7-147,195.3c-30,67.2-44.9,122.3-51.4,195.5c-1,13.5-1.3,27-0.9,40.5
		c4.8,71.4,53.4,194.4,48.6,125c-5.5-42.9-12.9-78.3-15.9-123c-3.2-60.2,0-109.9,13.4-168.7c5.2-21.3,11.9-42.2,19.9-62.5
		c33.9-81.2,73.7-136.6,138.4-196.2c64.7-55.7,122.4-88,203.5-114.7c81.3-24,146.7-30.2,230.9-21.3c28.3,3.6,56.3,9.4,83.7,17.3
		c50.8,16.8,92,36.3,133.7,70c11.2,9.4,20.9,18.7,29.5,30.6c-7.4-12.7-17.6-22.7-28.6-32.3C1239.9,283.8,1204,265.5,1160.3,248.9
		L1160.3,248.9z"/>
	<path class="st0" d="M1227.8,355.2c-57.8-26.4-109-40.2-175.4-47.6c-34.7-3.2-69.5-3.3-104.2-0.2c-33.2,3.1-65.4,6.9-98.5,11.9
		c-8.8,1.4-111.5,24.2-60.2-3.8c17.1-8.4,34.3-13.7,52.6-18.6c74.5-17.5,136-17.3,211.2-5.8c4.1,0.7,8.3,1.4,12.4,2.2
		c64.3,12.5,114,28.7,170.6,56.7c-2.3,1.3-4.5,2.6-6.8,3.9L1227.8,355.2L1227.8,355.2z"/>
	<path class="st0" d="M1553,813c-7.3-55.2-18.2-99.4-38.1-151.4c-27.2-67-56.2-115.2-103.3-170.1c-32.3-35.6-62.6-62.9-97.8-87.2
		c2.1-1,4.3-2.1,6.5-3.3c34,24.6,63.7,51.9,95.2,87.1c47.3,55.6,76.4,104.4,103.5,172.1c17.4,46.4,27.4,86.1,34.2,135.2
		c3.2,22.2,5.3,43.4,6.7,65.7c2.1,36.8,0.7,75.1,3.5,110.9c-4.8-32-3.7-77.1-5.8-111.1C1556.5,844.9,1555.1,829.1,1553,813L1553,813
		z"/>
	<path class="st0" d="M772.3,1401.2c33.2,11.9,67.6,20.2,102.5,25c85,9.9,151,3.6,233.2-20.2c82.1-26.6,140.5-59.1,206.7-114.6
		c66.8-59.6,108.1-114.7,147-195.4c30-67.1,44.8-122.3,51.4-195.4c1-13.5,1.3-27,0.9-40.4c-4.8-71.4-53.4-194.5-48.5-125.1
		c5.4,42.9,12.9,78.4,15.9,123c3.2,60.2,0,109.9-13.4,168.7c-5.1,21.3-11.8,42.2-19.9,62.5c-33.9,81.2-73.7,136.7-138.4,196.2
		c-64.7,55.7-122.4,88.1-203.5,114.7c-81.3,23.9-146.7,30.2-230.9,21.3c-28.3-3.6-56.3-9.4-83.7-17.3c-50.9-16.8-92-36.3-133.7-70
		c-11.2-9.4-20.9-18.7-29.5-30.6c7.5,12.7,17.7,22.6,28.6,32.3C692.8,1366.2,728.6,1384.5,772.3,1401.2L772.3,1401.2z"/>
	<path class="st0" d="M496.1,1127.9c7.7,10.1,16,20.2,24.9,30.6c50.2,55.4,95.7,90.7,161.7,125.7c67.3,33.4,122.8,49.9,197.4,58.2
		c34.7,3.2,69.5,3.3,104.2,0.2c33.3-3.1,65.5-6.9,98.6-12c8.8-1.4,111.4-24.2,60.1,3.8c-17.1,8.3-34.3,13.8-52.7,18.6
		c-74.5,17.5-136,17.3-211.2,5.8l-12.4-2.2c-70.6-13.7-123.6-31.9-187.5-65.4c-66-36.8-111.7-73-162.1-129.3
		c-9.2-10.8-17.6-21.3-25.5-31.8C493,1129.4,494.6,1128.6,496.1,1127.9L496.1,1127.9z"/>
	<path class="st0" d="M379.6,837c7.2,55.2,18.2,99.3,38.1,151.4c8.9,22.2,19,44,30.2,65.1c-1.2,1-2.5,2-3.7,3
		c-11.4-21.6-21.7-43.9-30.6-66.7c-17.4-46.4-27.4-86.1-34.2-135.3c-3.2-22.1-5.2-43.4-6.6-65.7c-2.1-36.8-0.8-75.1-3.6-111
		c4.8,32,3.7,77.1,5.8,111.1C376,805.1,377.6,820.9,379.6,837L379.6,837z"/>
	<path class="st0" d="M902.6,824.7c-22.2,25.2-41,46.1-66.4,69c-30.2,25.9-61.9,46.8-95.1,68.5c-32,20.9-63.7,41.1-96.6,60.6
		c-39.2,22.8-77.1,43-118.7,61.4c-31.8,13.7-64.4,26.3-97.5,36.2c-7.2,2.1-14.3,4.4-21.3,7c-28.5,11.3-47,20.4-71.2,39.2
		c-18.5,14.9-35.4,31.3-53.9,46.1c-5.4,3.6-42.7,20.9-42.3,22c17.1,13.8,36,10.2,55.8,3.8c23.5-8.5,43.9-24.2,64.4-38.3
		c21.6-14.8,39.7-24.8,63.4-36.4c8.9-4.5,17.7-8.9,26.6-13.2c29.2-14.3,58.3-28.1,87.1-43.5c40.5-22.1,77.7-45.2,116-70.9
		c31.9-21.3,62.8-43.2,94-65.5c32.7-23.3,63.8-45.4,93.8-72.2c24-22.2,42.7-44,63.8-68.8c1.5-1.8,3.1-3.7,4.7-5.6
		c17.3-20.1,32-36.5,54.2-51.5c19.4-12,38.5-20.1,61.2-23.7c17.9-2.1,27.9-0.1,45,4.1c-17.1-4.7-27-7-45.1-5.2
		c-23,3.1-42.5,10.7-62.5,22.6c-23,14.6-38,30.7-56.2,50.8C904.6,822.4,903.7,823.6,902.6,824.7L902.6,824.7z"/>
	<path class="st1" d="M636.5,1017.9c-39.8,13.9-79.2,33.9-117.5,51.9c-37.5,17.6-77.1,34.6-113,55.1c-2.2,1.3-4.6,2.5-6.9,3.8
		c-20.6,12.3-51.8,49.2-30.9,41.6c10.8-5.9,31.8-23.8,43.7-32.1c6.5-5.7,13.2-11.1,20.1-16.3c26.8-19.4,58.9-34.4,88.6-48.9
		c37.3-17.6,73.9-36.5,112.2-52.1c3-1.1,5.9-2.1,8.8-2.9c13.1-4.7,29.5-10.3,43.6-9.1c-12.2-2.9-33,3.8-44.4,7.7
		C639.4,1017,637.9,1017.4,636.5,1017.9L636.5,1017.9z"/>
	<path d="M636.5,1017.9c0.3-0.2,0.5-0.5,0.7-0.7c-40.2,14.2-79.8,34.1-118.3,52.3c-2.8,1.4-5.8,2.7-8.6,4
		c-35.2,16.4-70.6,32-104.4,51c-2.5,1.4-5.1,2.7-7.6,4.1c-11.7,6.5-23.4,15.1-31.3,26.1c-2,3-7.7,12.4-5.3,16.2
		c0.4,0.7,1.2,1.1,2,1.1c1.5-0.1,3-0.5,4.4-1.3l2-1.1c2-1.3,4-2.7,5.9-4.1c4.4-3.2,8.8-6.7,13-10c7.7-5.9,15.1-11.5,23-16.9
		c6.8-5.9,13.8-11.6,20.9-17c26.6-19.2,58.3-34,87.8-48.4c2.1-1,4.2-2.1,6.5-3.2c34.4-16.8,69.6-34.1,105.1-48.6
		c0.2-0.2,0.4-0.4,0.5-0.6c-0.2,0.3-0.5,0.5-0.7,0.7c3.2-1.2,6.6-2.4,9.8-3.3c12.6-4.4,28.6-9.8,42.2-8.6c0.7-0.5,1.5-1.1,2.2-1.6
		c-12.2-3.3-34.2,4-45.7,8.1l-3.3,1C637.1,1017.3,636.9,1017.6,636.5,1017.9c-0.1,0.1-0.4,0.4-0.6,0.6c1.7-0.6,3.4-1.2,5.2-1.6
		c12.3-4.1,29.9-10,43-7.3c0.4-0.3,0.8-0.6,1.2-0.9s0.7-0.5,1-0.7c-12.8-1.8-32.9,5.1-44.9,9.5c-2.6,0.9-5.3,1.8-8,2.7
		c-35.9,14.5-71.6,32.2-106.4,49.2c-2.3,1-4.4,2.1-6.5,3.2c-29.9,14.6-62.6,29.9-89.4,49.4c-6.6,5-13,10.3-19.4,15.6
		c-4.4,3.1-8.8,6.1-13,9.5c-6,4.4-11.8,8.9-17.8,13.7l-6.3,5c-1.5,1.2-3.2,2.3-4.8,3.3c-0.4,0.2-0.7,0.5-1.2,0.7
		c-0.8,0.5-1.8,0.7-2.7,0.7c-0.8,0-1.5-0.4-1.9-1c-2.4-3.7,3.6-13,5.6-15.9c7.7-10.5,19.1-18.9,30.4-25c2-1.2,4.1-2.3,6.2-3.4
		c33.2-19,69.7-34.9,104.4-51c2.8-1.4,5.8-2.7,8.6-4c38.8-17.5,76.3-37.9,116.7-51.5c0.2-0.2,0.5-0.5,0.7-0.7L636.5,1017.9z"/>
	<path class="st1" d="M823.1,929.9c-20.8,21.5-42,38.4-65.9,56.2c-31.1,22.6-63.3,43.5-96.7,62.6c-18.4,10.1-36.6,19.5-55.6,28.5
		c-5.4,2.4-71.8,22-49.4,5.9c19.7-10.7,54.1-19.5,76.8-28.1c8.6-3.3,17-7,25.4-10.9c36.2-18.1,65.3-36.5,98.1-60.1
		c22.4-16.3,42.7-32.2,62.8-51.2c9.4-9.8,17.8-19.4,24.7-31.2c2.6-4.1,4.6-8.4,6.1-13c-0.9,5-3.2,9.3-5.7,13.6
		C838.1,912.6,831.1,921.1,823.1,929.9L823.1,929.9z"/>
	<path class="st0" d="M823.1,929.9c-0.3,0.1-0.6,0.2-0.8,0.4c-20.6,21.3-41.6,38-65.3,55.5c-14.2,10.5-28.3,20.3-43.1,30
		c-17.6,11.6-35.2,22.2-53.5,32.6c-18.3,10.1-36.4,19.4-55.3,28.3c-5.5,2.5-11.1,4.5-16.8,6.3c-7.7,2.5-15.7,4.2-23.7,5.1
		c-2,0.1-10.4,0.8-11.5-1.3c-0.3-0.6-0.2-1.3,0.3-1.7c0.8-0.9,1.7-1.6,2.7-2.1c0.6-0.3,1.3-0.7,1.9-1c4.8-2.4,9.7-4.4,14.7-6.1
		c10.1-3.7,20.3-7,30.5-10.3c9.5-3.1,18.9-6.1,28.1-9.7c9.2-3.6,17.7-7.3,26.4-11.5c23.8-11.8,46.9-25.1,69-39.8
		c10-6.5,19.5-13.2,29.2-20.2c22.6-16.5,42.9-32.6,63.3-51.9h-0.1c0.1-0.1,0.1-0.1,0.2-0.1c9.3-9.6,17.4-18.9,24.2-30.4
		c3-4.5,5.3-9.4,6.9-14.5c-0.3,0.3-0.8,0.7-1.2,1s-0.8,0.7-1.3,1.1c-0.9,4.2-2.5,8.3-4.7,12c-5.7,10.9-13.1,19.7-21.4,28.7
		C822.4,930.2,822.8,930,823.1,929.9c0.3-0.2,0.5-0.3,0.8-0.4c7.8-8.5,14.6-16.8,20.3-26.9c2.6-3.8,5.7-10.5,6.4-15.1
		c-0.7,0.7-1.5,1.3-2.3,2c-1.3,4.1-3.2,8-5.4,11.6c-6.7,12.3-15.5,22.1-25.3,32.1c0.3-0.2,0.7-0.4,1.1-0.5c-0.3,0.1-0.6,0.3-0.8,0.3
		c-20.1,18.7-40.1,34.5-62.1,50.7c-9.7,7-19.2,13.7-29.2,20.3c-22.2,14.7-45.2,28-69,39.8c-8.2,3.8-16.3,7.2-24.7,10.5
		c-12.5,4.8-25.5,9-38.3,13.1c-6.8,2.2-13.5,4.5-20.2,7c-5.6,2-11.2,4.3-16.6,6.9c-0.9,0.6-2,1.1-2.9,1.6c-1.5,0.9-2.9,1.9-4.1,3.2
		c-0.5,0.5-0.7,1.3-0.5,2c0.8,1.6,4.7,1.7,6.2,1.7c6.5,0.1,14.8-1.4,21.2-3c9.3-2.1,18.3-5.2,26.9-9.2c19.1-9,37.6-18.5,56.1-28.7
		c18.4-10.5,35.9-21.1,53.6-32.6c14.8-9.7,28.9-19.6,43.1-30c24.2-18,45.7-35.1,66.6-56.8C823.6,929.7,823.3,929.8,823.1,929.9
		L823.1,929.9z"/>
	<path class="st0" d="M305.1,1235.2c53.6-0.6,51.8-2.7,104.3-17.6c15.5-4.4,23.5-28.6,33.5-43.1c33.9-48.5,63.4-64.7,112.8-90.6
		c-26.3,18.1-53,36.1-73.5,61.2c-21.7,26.8-38.5,79.8-70.7,85C357.5,1238.7,358.3,1241,305.1,1235.2L305.1,1235.2z"/>
	<path class="st0" d="M630.1,773.3c7.4-12,15.6-23.5,24.7-34.3c27.5-31,54.7-48,91.9-65.6c26.9-12.2,59-22.7,83.4-38.5
		c20.8-15.2,32.4-34.5,50.2-52.9c22.9-22.2,49-40.9,77.5-55.4c26.5-12.6,48.2-17.1,75.6-25.5c29.2-9.4,54.7-20.2,81.3-35.4
		c26-15.5,49.7-33.9,75.4-50.2c21.7-13.2,44.4-25,67.7-35.2c17-7.3,34-14.5,51.2-21.3c42.6-16.1,84.8-29.3,128-43.5
		c11.9-3.8,99.7-30.9,105.9-39.6c-30.6-12.2-84.1-1.7-114.6,3.9c-48.4,9.3-89.5,22-135.1,41.3c-21.7,9.8-42.8,20.8-63.3,33
		c-19.5,11.7-37.7,23.6-56,37c-24.4,17.7-46.9,37.9-71.4,54.8c-24.3,16-47.8,27.3-75,37.6c-27.6,10-49.6,16-76.4,29.9
		c-29.1,16.2-55.7,36.7-78.8,60.7c-16.6,18-28.5,38.6-47.5,53.4c-22.4,15.7-55.7,27.5-81.2,39.6c-37.9,18.9-64.3,36.4-92.7,68.6
		c-8.2,10-15.7,20.6-22.5,31.7c-15.4,25.7-26.8,50.3-38.5,77.7c-12.4,28.9-23.8,58.6-38.3,86.6c-13.3,24.8-28,45.8-44,68.7
		c16.5-22.7,31.6-43.4,45.3-68c15-27.9,26.9-57.2,39.8-86C604.2,820.8,615.4,797.5,630.1,773.3L630.1,773.3z"/>
	<path class="st0" d="M1145.2,759c-2.2,14.1-5.7,28.3-8.2,42.5c-4,24.4-5.2,44.6-3.3,69.6c2.5,27.3,7.9,53,10,80.7
		c1.6,32.4,0.1,63.8,0.2,95.9c0.5,12,1.8,24,3.8,35.8c0,0.1,0,0.2,0.1,0.3c2.6,10.5,5.9,17.9,12.5,26.5
		c13.5,15.8,27.6,22.3,47.5,27.4c5.9,1.2,60.1,7.3,61.8-1.2c-7.8-18.5-32-27.6-48.9-35.3c-11.1-5-20.9-9.4-30.1-17.7
		c-3.8-3.6-6.9-7.8-9.2-12.5c-0.5-0.8-0.9-1.8-1.4-2.7c-3.7-7.8-5.6-15.2-7.2-23.6c-6.4-30.6-8.2-63.2-13.1-94.4
		c-4.5-27.4-12.2-53.1-16.8-80.1c-3.2-24.1-3-43.7-0.1-67.8c1.9-13.8,4.6-27.3,6.6-41.1c0.7-5.1,1.2-10.2,1.3-15.4
		c0.1-16-2.9-26.6-5.4-41.9c-1.4-11-1.9-21.4,0.2-32.2c1.9-7.9,4.1-11.4,8.8-17.8c-5,6.2-7.3,9.8-9.6,17.6
		c-2.7,11-2.6,21.6-1.5,32.9c1.8,15,4.4,25.7,3.6,41.5C1146.4,750.3,1145.8,754.5,1145.2,759L1145.2,759z"/>
	<path class="st1" d="M1135.4,949.4c-0.2,1-0.4,2.2-0.6,3.3c-7.1,29.4-8.2,66.5-4.2,96.4c2.1,13.6,4.7,24.5,10.8,36.7
		c3.5,7.6,8.3,14.5,14.1,20.4c1.5,1.5,3.2,2.9,5,4.1c17.1,10.4,36,5,29.9-2.3c-3.2-2.6-13.5-6.1-17.9-8.4
		c-8.4-4.1-15.8-10.1-21.5-17.5c-0.2-0.1-0.7-0.8-1-1.1c-8.4-9.7-11.8-20.3-14.5-32.6c-6.8-30.9-3.8-64.9,1-96v-0.1
		c2.4-10.7,4.8-24.7,13-33c-8.1,6.5-11.8,20.3-14,29.9L1135.4,949.4z"/>
	<path class="st0" d="M1135.4,949.4c-0.1-0.3-0.1-0.5-0.2-0.7c-0.4,1.4-0.5,2.7-0.9,4c-5.5,24-7.3,53.4-5.9,77.9
		c0.4,6.4,1.1,12.2,1.9,18.4c2,13.6,4.7,24.5,10.7,36.9c3.5,7.8,8.4,14.8,14.4,20.9c1.4,1.4,2.9,2.6,4.5,3.8
		c6.1,4.1,11.6,6.3,19,6.5c3.6,0,10.7-1.2,12.9-4.7c0.3-0.6,0.5-1.4,0.3-2.1c-0.3-0.9-0.9-1.7-1.6-2.3c-0.3-0.3-0.7-0.6-1.1-0.8
		c-1.2-0.8-2.4-1.4-3.6-2c-2.8-1.2-5.7-2.2-8.4-3.4c-1.7-0.6-3.3-1.4-4.8-2.2c-8.4-4-15.7-9.9-21.4-17.3c-0.5-0.4-1-0.9-1.4-1.5
		c-8.1-9.6-11.6-20-14.2-32c-2.4-9.3-3.2-17.7-3.7-27.3c-1.1-22.1,0.9-46.5,4.7-68.4c-0.1-0.1-0.2-0.2-0.4-0.3
		c0.1,0.1,0.2,0.3,0.2,0.5c0.1-0.1,0.1-0.4,0.3-0.6c2.2-10.4,4.8-24.2,12.6-32.1c-0.1-0.5-0.3-1.1-0.4-1.6
		c-8,6.3-11.9,20.4-13.9,29.9C1135.2,949,1135.2,949.2,1135.4,949.4c0.1,0.2,0.2,0.4,0.2,0.7c2.1-9.3,6-23.4,13.8-29.7
		c0-0.2-0.1-0.5-0.1-0.9c-0.2-0.2-0.2-0.4-0.3-0.7c-7.6,7.6-11.1,22.9-13,33.2c0,0.2,0,0.4-0.1,0.6c-3.7,22-5.7,46.6-4.6,68.7
		c0.3,9.2,1.6,18.3,3.7,27.3c2.3,11.5,6.8,24.6,14.8,33.3c0.1,0.1,0.5,0.4,0.6,0.6c5.4,7.1,12.4,13,20.4,17c0.4,0.2,0.7,0.4,1,0.6
		c3.2,1.6,6.5,3,9.9,4.2c1.4,0.6,2.9,1.2,4.4,1.8c1,0.4,2,0.9,2.9,1.5c0.3,0.1,0.5,0.3,0.7,0.4c0.5,0.4,0.9,0.9,0.9,1.6
		c0.1,0.6,0,1.3-0.3,1.9c-2.1,3.4-9.1,4.4-12.6,4.4c-6.2-0.2-12.2-2.2-17.3-5.8c-1.8-1.3-3.6-2.8-5.2-4.4
		c-5.7-5.8-10.3-12.6-13.7-20.1c-6.1-12.3-8.8-23.2-10.7-36.6c-1-6.3-1.6-12.2-1.9-18.4c-1.6-26.2,0.5-52.5,6.1-78.1
		c0.2-0.8,0.4-1.7,0.5-2.6C1135.5,949.9,1135.4,949.7,1135.4,949.4L1135.4,949.4z"/>
	<path class="st1" d="M1153,833.3c2.8,11.6,5.1,23.3,7.7,35c6.7,28.4,11.2,51.2,12.6,80.7c0.2,11-0.1,22-1.1,32.9
		c-0.9,7.6-12.5,41.5-16.8,27.6c-0.8-11.1,7.7-35.7,10.3-48.4c0.7-3.8,1.2-7.6,1.6-11.4c1.7-30.5-2.5-51.7-9-81
		c-2.1-10.9-4.1-21.6-6-32.5c-1.9-8.6-5.2-21.7-11.3-28.2C1147.4,813.3,1150.9,825.5,1153,833.3L1153,833.3z"/>
	<path class="st0" d="M1153,833.3c0,0.1-0.1,0.2-0.2,0.3c2.8,11.6,5,23.2,7.5,34.6c2.9,12,5.6,23.8,7.8,35.9
		c2.7,14.8,4.3,29.7,5,44.8c0.1,11-0.2,21.6-1,32.7c-0.3,3.6-1,7.1-2.1,10.5c-1.4,4.8-3.4,9.4-6.1,13.6c-1,1.8-3.9,5.6-6.2,5.7
		c-0.5,0-1-0.2-1.3-0.6c-0.4-0.6-0.6-1.2-0.6-1.9c-0.1-0.4-0.2-0.8-0.1-1.2c0-3.1,0.4-6.2,1.1-9.2c1.3-6.3,3.1-12.6,4.9-18.8
		c1.6-6,3.3-12.1,4.5-18.1c0.8-4.1,1.3-8.1,1.8-12.3c1-19.4-0.2-35.1-3.5-54.2c-1.7-9-3.6-17.8-5.6-26.7c-2.1-11-4.1-21.9-6-32.9
		l0,0v-0.1c-1.9-8.7-5.2-21.8-11.3-28.6c-0.1,0.2-0.1,0.6-0.2,0.8c0,0.2,0,0.5-0.1,0.7c6.4,5.4,9.8,17.6,11.8,25.3
		c0.1-0.1,0.2-0.3,0.2-0.5c0.1-0.2,0.2-0.4,0.2-0.5c-2-7.9-5.6-20.3-11.9-25.8c-0.1,0.4-0.2,0.9-0.3,1.4c6,6.8,9.2,19.5,11.2,28.1
		c0.1-0.1,0.1-0.3,0.2-0.5c-0.1,0.1-0.1,0.2-0.2,0.3c1.8,10.8,3.8,21.5,5.9,32.2c2,9,4,17.8,5.6,26.8c3.3,19.1,4.7,34.8,3.4,54.2
		c-0.5,3.8-0.9,7.3-1.6,11c-1.5,8.2-4.1,16.4-6.2,24.5c-1.2,4.1-2.2,8.2-3.1,12.5c-0.8,3.4-1.2,6.8-1.2,10.3c0,0.6,0,1.3,0.1,1.9
		c0.2,1,0.5,1.9,1.1,2.8c0.4,0.4,1,0.7,1.6,0.6c1.5,0,3.2-1.6,4-2.7c2.8-3.1,5.2-7.8,6.8-11.6c2.2-5.3,3.6-10.8,4.1-16.5
		c0.8-11.1,1.3-22.2,1-33.3c-0.5-15.1-2.2-30.1-5-44.9c-2.2-12-4.9-23.9-7.8-35.8c-2.4-11.8-4.9-23.8-7.7-35.4
		C1153.2,833,1153.1,833.1,1153,833.3L1153,833.3z"/>
	<path class="st0" d="M1080,817.9c17.6,90.4,25.9,170.3,52.1,259.8c2.2,7.5,3.8,12.4,6,20c-22.4-50.4-50.1-108.3-52.6-163.3
		C1083.7,894.8,1082.8,857.9,1080,817.9L1080,817.9z"/>
	<path class="st0" d="M285.2,1163.4c23.3-15.2,21.9-16.4,41.1-33.4c20.6-18.1,41-20.3,66.8-36.5c51.5-32.2,113.5-91.4,162.9-131.3
		c56.1-45.5,105.7-93.6,160-139.4c16.9-14.2,26.6-23.3,48.3-28.5c-21.1,6.5-30.1,16.1-45.9,31.2c-46.9,44.9-90.1,92.5-138.2,137.4
		c-46.8,43.8-127,107.5-183,137.7c-26,14.1-48.3,16.1-68.7,31.9S309.3,1149.6,285.2,1163.4L285.2,1163.4z"/>
	<path class="st0" d="M1141.1,630.7c53.6-35.7,66.4,21.8,119.1,10.4c80-17.4,64.9-153.3-80.4-145.8c-63.9,3.4-24.1,45.8-55.4,72.7
		c18.3-18.5,6-32,14.2-58.3c6.8-21.7,42.3-24,60-24.4c170.6-4.5,151.4,167.6,54.1,166.7C1198.6,651.5,1193.9,601.6,1141.1,630.7
		L1141.1,630.7z"/>
	<path class="st0" d="M1193.1,468.7c27.1-17.5,41-26.6,65.8-47.2c32.5-26.9,71.7-43.1,108.4-63.4c33.4-18.5,39-25,75-18.5
		c-6.1-0.3-15.5-1.2-21.6-0.4c-20.7,2.6-68.6,42.3-88.5,55c-22.9,14.5-42.4,18.9-67.3,35C1237.4,446.9,1222.5,454.3,1193.1,468.7
		L1193.1,468.7z"/>
	<path class="st1" d="M832.4,593.2c29.3-30.5,59.4-54.3,93.3-79.5c43.9-32.1,89.6-61.7,136.9-88.6c26-14.3,51.7-27.5,78.6-40.3
		c7.8-3.3,101.7-31.1,69.9-8.3c-27.9,15-76.5,27.5-108.5,39.7c-12.3,4.7-24.1,9.8-36,15.4c-51.2,25.6-92.5,51.6-138.9,85
		c-31.7,23.2-60.2,45.7-88.8,72.7c-13.4,13.7-25.3,27.3-35,44c-3.2,4.8-7.1,12.6-8.6,18.3c1.3-7,4.4-13,7.9-19.1
		C811.1,617.5,821.1,605.5,832.4,593.2L832.4,593.2z"/>
	<path class="st0" d="M832.4,593.2c0.4-0.1,0.8-0.2,1.2-0.5c29.1-30,58.8-53.7,92.4-78.7c20.1-14.6,40.1-28.7,60.9-42.4
		c25.1-16.3,50-31.4,75.8-46.1c25.9-14.4,51.4-27.5,78.2-40c7.7-3.5,15.6-6.5,23.7-9c11-3.5,22.2-5.8,33.7-7.1
		c2.7-0.3,14.6-1.2,16.2,1.9c0.4,0.8,0.2,1.8-0.6,2.3c-1.1,1.2-2.4,2.2-3.8,3c-1,0.4-1.8,1.1-2.7,1.5c-6.8,3.3-13.8,6.1-20.9,8.6
		c-14.2,5.1-28.7,9.8-43.1,14.5c-13.3,4.4-26.8,8.7-39.8,13.8c-12.8,5-24.9,10.3-37.3,16.1c-33.7,16.7-66.3,35.6-97.6,56.3
		c-14,9.3-27.6,18.8-41.2,28.7c-31.9,23.3-60.7,46.1-89.5,73.2v0.1c-0.1,0-0.1,0.1-0.2,0.1c-13.1,13.6-24.7,26.6-34.2,43
		c-4.3,6.3-7.7,13.2-9.9,20.4c0.6-0.5,1.2-1,1.8-1.5s1.2-1,1.8-1.5c1-6.2,3.7-11.5,6.7-17c7.9-15.3,18.4-27.9,30.1-40.5
		C833.4,592.9,832.8,593,832.4,593.2c-0.4,0.3-0.8,0.5-1.2,0.7c-11.1,12-20.7,23.6-28.7,38c-3.7,5.4-8,14.9-9.1,21.4
		c1-1,2.2-1.8,3.3-2.7c1.9-5.8,4.5-11.4,7.7-16.6c9.7-17.3,22-31.2,35.8-45.3c-0.5,0.2-1,0.4-1.4,0.7c0.4-0.2,0.8-0.4,1.2-0.5
		c28.3-26.6,56.6-49,87.9-71.8c13.6-10,27.3-19.5,41.2-28.7c31.4-20.8,64-39.6,97.7-56.3c11.6-5.3,23-10.3,34.8-14.9
		c17.7-6.9,36.3-12.6,54.2-18.7c9.6-3.1,19.1-6.2,28.6-9.7c8-2.8,15.8-6.1,23.4-9.8c1.4-0.7,2.7-1.5,4.1-2.4
		c2.2-1.1,4.1-2.6,5.8-4.4c0.6-0.8,1.2-1.9,0.7-2.8c-1.1-2.2-6.5-2.4-8.6-2.4c-9.2-0.4-20.9,2-29.9,4.1c-13.1,3.1-25.8,7.4-38,13
		c-27.3,12.8-53.3,26.2-79.5,40.7c-26,14.8-50.9,29.9-75.9,46.2c-20.8,13.7-40.9,27.8-61,42.4c-34.3,25.4-64.6,49.6-94.2,80.4
		C831.6,593.7,832,593.5,832.4,593.2L832.4,593.2z"/>
	<path class="st1" d="M1021.3,519.1c36.7-9.1,68.6-21.7,103.2-36.7c44.4-19.6,87.7-41.8,129.6-66.4c22.8-13.7,44.5-27.8,66.4-43
		c6-4.5,69.4-64.8,37.7-50.4c-24.1,14.9-55.6,47.1-79.2,66.5c-9.2,7.3-18.3,14.2-28,20.9c-42.6,28.3-81.3,48.7-127.8,69.7
		c-32,14.2-62.2,26.2-95.9,36.4c-16.6,4.2-32.3,7.4-49.7,7.3c-6,0.4-12.1,0-18-1.4c6,2,12.2,2.4,18.4,2.4
		C993,524.8,1006.7,522.4,1021.3,519.1L1021.3,519.1z"/>
	<path class="st0" d="M1021.3,519.1c0.4-0.3,0.6-0.5,0.9-0.7c36.3-9,67.9-21.5,102.1-36.4c20.4-9,40.2-18.2,60.1-28.2
		c23.8-12.1,46.6-24.7,69.6-38.2c22.6-13.6,44.2-27.5,65.8-42.7c6.2-4.4,12-9.2,17.6-14.4c7.6-7,14.5-14.6,20.6-22.9
		c1.4-2,7.4-10.8,5.7-13.3c-0.5-0.8-1.2-0.8-2-0.6c-1.4,0.3-2.8,0.9-4,1.7c-0.8,0.4-1.6,0.8-2.4,1.4c-5.6,3.8-11,7.9-16.1,12.3
		c-10.3,8.7-20.4,17.8-30.5,26.9c-9.3,8.2-18.6,16.8-28.5,24.7c-9.6,7.6-19.1,14.6-29,21.6c-28,18.6-57.1,35.5-87.2,50.6
		c-13.5,6.6-26.9,13-40.6,19.2c-32.4,14.3-62.8,26.4-96.7,36.6l0,0c-0.1,0-0.3,0-0.3,0.1c-16.3,4.1-31.6,7.2-48.5,7.3
		c-6.8,0.5-13.7,0-20.3-1.4c0.7-0.2,1.4-0.5,2-0.7s1.3-0.5,2-0.7c5.3,1.9,10.6,2.2,16.1,2.4c15.5,0.7,29.9-1.9,44.9-5.3
		C1022.1,518.6,1021.7,518.9,1021.3,519.1c-0.2,0.3-0.5,0.5-0.9,0.7c-14.3,3.2-27.5,5.5-42.3,5.3c-5.8,0.4-15.1-0.5-20.7-2.5
		c1.3-0.5,2.5-1,3.7-1.4c5.3,1.2,10.8,1.6,16.2,1.4c17.8,0.2,34-3.1,51.1-7.4c-0.4,0.2-0.8,0.5-1.2,0.8c0.4-0.2,0.6-0.5,1-0.7
		c33.2-10.2,63.1-22,94.8-36c13.7-6.1,27.2-12.4,40.6-19.1c30.1-15,59.1-31.9,87.1-50.6c9.3-6.5,18.3-13.1,27.2-20.3
		c13.2-10.6,26-22.3,38.6-33.7c6.8-6,13.4-11.9,20.3-17.7c5.7-4.9,11.7-9.6,17.9-13.8c1.2-0.7,2.5-1.4,3.6-2.1
		c1.9-1.1,3.9-1.9,6-2.5c0.8-0.1,2-0.1,2.5,0.7c1.3,1.8-1.1,6.2-2,7.7c-3.9,7.3-10.9,15.4-16.6,21.4c-8.2,8.8-17.2,16.7-27,23.6
		c-22.1,15.4-43.9,29.5-67,43.5c-23,13.5-45.8,26-69.6,38c-19.9,10-39.7,19.4-60.1,28.3c-34.8,15.2-67.2,28-104.3,37.1
		C1020.7,519.6,1021,519.4,1021.3,519.1L1021.3,519.1z"/>
</g>
</svg>
