<?xml version="1.0" encoding="utf-8"?>
<!-- Generator: Adobe Illustrator 24.0.3, SVG Export Plug-In . SVG Version: 6.00 Build 0)  -->
<!DOCTYPE svg PUBLIC "-//W3C//DTD SVG 1.1//EN" "http://www.w3.org/Graphics/SVG/1.1/DTD/svg11.dtd" [
	<!ENTITY ns_extend "http://ns.adobe.com/Extensibility/1.0/">
	<!ENTITY ns_ai "http://ns.adobe.com/AdobeIllustrator/10.0/">
	<!ENTITY ns_graphs "http://ns.adobe.com/Graphs/1.0/">
	<!ENTITY ns_vars "http://ns.adobe.com/Variables/1.0/">
	<!ENTITY ns_imrep "http://ns.adobe.com/ImageReplacement/1.0/">
	<!ENTITY ns_sfw "http://ns.adobe.com/SaveForWeb/1.0/">
	<!ENTITY ns_custom "http://ns.adobe.com/GenericCustomNamespace/1.0/">
	<!ENTITY ns_adobe_xpath "http://ns.adobe.com/XPath/1.0/">
]>
<svg version="1.1" id="Слой_1" xmlns:x="&ns_extend;" xmlns:i="&ns_ai;" xmlns:graph="&ns_graphs;"
	 xmlns="http://www.w3.org/2000/svg" xmlns:xlink="http://www.w3.org/1999/xlink" x="0px" y="0px" viewBox="0 0 1855.8 1600"
	 style="enable-background:new 0 0 1855.8 1600;" xml:space="preserve">
<style type="text/css">
	.st0{fill:#46514D;}
	.st1{fill:#73c6cd;}
</style>
<metadata>
	<sfw  xmlns="&ns_sfw;">
		<slices></slices>
		<sliceSourceBounds  bottomLeftOrigin="true" height="1214.6" width="1408.9" x="0" y="0.1"></sliceSourceBounds>
	</sfw>
</metadata>
<title>Leg Pull Back</title>
<g>
	<path class="st0" d="M584.4,438.8c-23.4,33.4-42.8,69.3-61.2,112.1c-27.1,68.3-39.7,124.1-43.1,197.5c-0.4,13.5-0.2,27,0.8,40.5
		c7.8,71.1,61.6,192,53.8,122.9c-7.3-42.7-16.2-77.7-21.1-122.2c-5.7-60-4.6-109.8,6.3-169.1c4.3-21.5,10.1-42.6,17.3-63.3
		c14.9-40.6,31.6-75,52-106.9c-1-2.5-2-5-3.1-7.6C585.5,441.3,585,440,584.4,438.8L584.4,438.8z"/>
	<path class="st0" d="M1199.2,217c-35.7-10.9-66.6-17-103.6-20.7c-85.3-6.3-151.1,2.8-232.1,30c-80.9,30-137.9,64.9-201.6,123.2
		c-11.1,10.7-21.3,21.2-31,31.8c1.4,2.7,2.8,5.5,4.2,8.2c9.9-11.4,20.6-22.7,32.1-34.2c62.3-58.5,118.6-93.2,198.5-123.2
		c80.2-27.4,145.3-36.4,229.8-31c28.5,2.4,56.7,7,84.4,13.7c51.5,14.6,93.4,32.3,136.5,64.3c11.6,8.9,21.7,17.8,30.7,29.3
		c-8-12.4-18.5-21.9-29.9-31.1C1280.2,248.6,1243.5,231.8,1199.2,217L1199.2,217z"/>
	<path class="st0" d="M1615.3,764.2c-9.6-54.9-22.4-98.5-44.4-149.7c-30-65.7-61-112.7-110.4-165.6
		c-52.4-53.2-99.4-86.5-166.8-118.8c-68.7-30.5-124.8-44.6-199.7-49.7c-34.8-1.8-69.6-0.4-104.1,4.2c-33.1,4.5-65,9.6-97.9,16
		c-8.8,1.8-110.3,28.9-60.3-1.2c16.7-9.1,33.6-15.2,51.8-20.8c73.7-20.6,135.1-23,210.8-14.7c4.2,0.6,8.3,1.1,12.5,1.7
		c71.1,10.7,124.9,26.7,190.1,57.4c67.5,34,114.8,68.2,167.4,122.3c49.6,53.6,80.8,101.1,110.6,167.6c19.3,45.6,31,84.9,39.9,133.7
		c4.1,22,7.2,43.1,9.5,65.4c3.6,36.7,3.9,75,8.1,110.7c-6.1-31.8-6.9-76.9-10.5-110.8C1620.1,795.8,1618,780.1,1615.3,764.2
		L1615.3,764.2z"/>
	<path class="st0" d="M860.1,1384.6c33.7,10.4,68.4,17.4,103.5,20.7c85.4,6.4,151.1-2.8,232.1-30.1c80.9-30,137.9-64.9,201.7-123.2
		c64.2-62.3,103.1-119.1,138.6-201.3c27.1-68.3,39.6-124.1,43.1-197.5c0.4-13.5,0.2-27-0.8-40.4c-7.8-71.1-61.6-192.1-53.7-122.9
		c7.2,42.6,16.1,77.8,21,122.2c5.7,60,4.6,109.8-6.3,169.1c-4.3,21.5-10,42.6-17.2,63.3c-30.4,82.6-67.9,139.6-130.1,201.9
		c-62.3,58.4-118.6,93.1-198.5,123.1c-80.2,27.3-145.3,36.4-229.8,31c-28.4-2.4-56.6-7-84.3-13.7c-51.6-14.6-93.4-32.4-136.6-64.3
		c-11.6-9-21.6-17.8-30.7-29.3c8.1,12.4,18.6,21.9,29.9,31.1C779.1,1353,815.6,1369.7,860.1,1384.6L860.1,1384.6z"/>
	<path class="st0" d="M552.3,1097.6c14.4,19.2,29.9,37.7,46.4,55.2c52.5,53.2,99.4,86.6,166.8,118.8
		c68.7,30.5,124.8,44.6,199.7,49.8c34.8,1.8,69.6,0.4,104.1-4.2c33.1-4.5,65.1-9.7,98-16.1c8.7-1.8,110.3-28.9,60.3,1.3
		c-16.8,9-33.6,15.2-51.9,20.8c-73.7,20.6-135.2,23-210.8,14.7l-12.5-1.7c-71.1-10.7-124.8-26.7-190.1-57.4
		c-67.5-34-114.7-68.3-167.4-122.4c-17.1-18.3-33.1-37.6-47.9-57.7L552.3,1097.6L552.3,1097.6z"/>
	<path class="st0" d="M443.9,837.5c9.6,54.9,22.4,98.5,44.4,149.7c6.2,13.6,12.4,26.4,18.9,38.6c-1.4,0.6-2.8,1.2-4.2,1.8
		c-6.4-12.3-12.6-25.1-18.7-38.8c-19.3-45.6-31-84.9-39.9-133.7c-4.1-21.9-7.1-43.1-9.4-65.3c-3.6-36.7-3.9-75-8.2-110.7
		c6.1,31.8,6.9,76.9,10.5,110.8C439,805.8,441.2,821.5,443.9,837.5L443.9,837.5z"/>
	<path class="st0" d="M718.9,883c-8.5,4.7-17,9.5-25.4,14.3c-27.3,16.2-46.7,30.1-70.2,51.5c-20.1,18.6-33.3,31.2-56.7,46.7
		c-33.2,20.1-66.3,35.1-103.5,45.8c-30,7.5-60.8,11.7-91.8,12.7c-8.7,0.2-17.3,1-25.9,2.6c-23.8,5.1-125.7,46.7-121.8,69.5
		c33.2,26.6,102.8-1.3,136.7-13c9.6-3.3,19-6.5,28.6-9.8c28.9-10,56.5-18.8,84.7-31.1c37.3-17.1,70.6-36.6,103.1-61.9
		c23.3-17.9,35.4-31.9,54.9-52.9c21.5-23,39.1-36.5,65.8-53.5c7.6-4.9,15.1-9.5,22.8-14c28.2-16.5,56.8-31.9,85.6-47.6
		c11.9-6.1,24.1-12.3,35.9-18.9c-12.4,5-24.8,11.3-36.9,17.1C775.9,854.1,747.2,868,718.9,883L718.9,883z"/>
	<path class="st1" d="M523.4,1005.3c-23.4,2.4-45.2,7.9-67.9,13.6c-39,9.7-72.3,18.4-109.2,35c-0.5,0.2-1,0.4-1.4,0.7
		c-14.2,8.8-34.7,38.3-19.1,39.3c6.5-0.8,20-13.1,24.9-17.6c7.8-6.4,15.6-12.9,23.6-19c25.9-18.5,52.4-26,82.7-34.1
		c21.1-5.6,42.3-11.2,63.8-15.3c13.5-1.6,30.1-1.9,42.3,4.9C551.8,1005.1,536.4,1004.4,523.4,1005.3L523.4,1005.3z"/>
	<path class="st0" d="M523.4,1005.3c0.2-0.2,0.3-0.4,0.4-0.6c-23.5,2.4-45.7,8.1-68.6,13.8c-8.5,2.1-17.1,4.2-25.7,6.5
		c-28.7,7.4-57,16-84,28.6c-0.3,0.1-0.7,0.3-0.9,0.5c-8.3,4.4-15.2,11-20,19.1c-2.6,4.4-6.3,12.9-4.6,18.1c0.2,1,0.8,1.9,1.6,2.5
		c1.2,0.7,2.5,0.9,3.8,0.6c0.6-0.1,1.1-0.2,1.6-0.4c1.7-0.6,3.4-1.3,5-2.2c3.3-2.2,6.5-4.5,9.6-7c3.1-2.6,6-5.2,8.9-7.9
		c8.2-6.5,16.1-13.2,24.3-19.6c19-14.4,43.5-22.8,66.2-29.3c5.2-1.5,10.5-2.9,15.8-4.4c21-5.7,41.9-11.1,63.3-15.2
		c0.1-0.2,0.2-0.4,0.3-0.6c-0.1,0.2-0.3,0.3-0.5,0.6c13.2-1.5,30-1.9,41.9,4.9c0.5-0.4,1-0.6,1.4-0.9c-10.9-7.9-26.7-8.5-39.7-7.6
		C523.7,1004.9,523.5,1005.1,523.4,1005.3c-0.2,0.2-0.4,0.4-0.5,0.6c12.6-0.8,28.5-0.3,39.2,7.3c0.3-0.2,0.6-0.3,0.9-0.5l0.6-0.6
		c-12.1-6.9-29.1-6.5-42.4-5c-21.8,4.2-43,9.8-64.3,15.6c-5.3,1.4-10.6,2.9-15.8,4.4c-23.2,6.6-48.3,15.3-67.6,30
		c-7.8,5.9-15.4,12.3-22.9,18.5c-1,0.8-1.9,1.5-2.7,2.4c-3.9,3.4-7.8,6.8-11.8,9.8c-1.6,1.3-3.3,2.4-5,3.6c-1.3,0.7-2.6,1.3-4,1.8
		c-0.3,0.1-0.7,0.2-1,0.2c-0.8,0.2-1.7,0-2.4-0.4c-0.8-0.5-1.4-1.3-1.6-2.2c-1.5-5.1,2.1-13.5,4.6-17.8c4.5-7.5,10.8-13.6,18.3-17.9
		c0.6-0.4,1.2-0.7,1.9-0.9c26.6-12.4,54.7-20.8,82.9-28.2c8.6-2.2,17.2-4.4,25.9-6.5c22.4-5.7,44.2-11.2,67.3-13.5
		C523.2,1005.8,523.3,1005.6,523.4,1005.3L523.4,1005.3z"/>
	<path class="st1" d="M656.3,957.8c-2.7,5.7-5.4,11-8.6,16.4c-16.5,25.7-31.4,40-56.6,57.6c-27.4,17.9-54.3,29.3-85.7,38.1
		c-10.9,2.8-22.3,2.5-33-0.7c-3.8-0.8-17.2-7.3-8.6-11.6c1.4-0.6,2.8-1.1,4.3-1.4c18.2-3.3,39.3-1.9,59-4.9
		c21.8-3.8,42.7-11.7,61.5-23.3c26.1-17.2,39.5-30.6,57-56.1c2.7-4.2,5.4-8.6,8-12.9c5.1-9.8,11.9-24.7,12.3-35.8
		c0.7,10.5-5.2,25-9.7,34.4L656.3,957.8z"/>
	<path class="st0" d="M656.3,957.8c-0.2,0.1-0.4,0.1-0.6,0.1c-2.6,5.4-5.3,10.6-8.4,15.9c-16.4,25.6-31.3,39.9-56.4,57.5l-0.1,0.1
		c-27.3,17.8-54,29.2-85.3,38c-4.7,1.1-9.5,1.7-14.3,1.8c-6.5,0.1-13-0.8-19.1-2.8c-0.2-0.1-0.4-0.2-0.6-0.2
		c-2.8-1.1-8.4-3.6-9.3-6.7c-0.3-0.6-0.3-1.4,0.1-2c0.3-0.7,1.3-1.2,1.9-1.5c0.4-0.2,0.9-0.4,1.4-0.6c0.9-0.2,1.8-0.4,2.5-0.7
		c3.1-0.4,5.9-0.8,9.1-1.1c8.2-0.7,16.8-1,25-1.3c8.1-0.2,16.2-0.9,24.2-2.1c22.1-3.9,43.2-11.9,62.4-23.5c4.7-3.1,9.2-6.1,13.7-9.6
		c19.2-15,29.7-26.8,43.4-46.7c2.8-4.4,5.6-8.7,8.2-13.2H654c0-0.1,0-0.1,0.1-0.1l0,0c5.2-9.9,12.1-24.9,12.6-36.2
		c-0.3,0.2-0.6,0.3-0.9,0.5s-0.6,0.5-0.9,0.6c0.9,10.4-5,24.7-9.3,33.9C655.9,957.9,656.1,957.8,656.3,957.8h0.6
		c4.5-9.6,10.7-24.2,10-34.9c-0.6,0.4-1.2,0.6-1.8,1c-0.6,11.2-7,25.5-12,35.4c0.1-0.1,0.4-0.1,0.6-0.1h-0.6
		c-2.5,4.3-5.1,8.4-7.7,12.5c-13.7,20-24.1,31.8-43.4,46.6c-4.5,3.4-9,6.5-13.7,9.6c-19.9,11.8-38,18.8-60.8,22.9
		c-10.5,1.8-22.1,2.1-32.7,2.7c-5.5,0.1-11,0.4-16.5,0.8c-3.5,0.3-7,0.8-10.4,1.4l-2.5,0.7c-0.7,0.3-1.4,0.6-2.1,0.9
		c-1.2,0.4-2.3,1.2-3,2.3c-0.4,0.8-0.5,1.6-0.2,2.5c0.7,2.1,3.1,3.8,5,4.8c2.5,1.3,5,2.4,7.7,3.2c3.2,0.9,6.4,1.5,9.7,1.8
		c7.5,0.9,15.2,0.4,22.6-1.4c31.8-9,58.7-20.3,86.3-38.4l0.1-0.1c25.1-17.6,40-31.9,56.6-57.5c3.2-5.6,6-11.1,8.8-16.8L656.3,957.8z
		"/>
	<path class="st0" d="M413.4,1127c64.7-30,124.1-25.6,193.1-56.9c93.2-42.2,66.7-73.3,200.4-102.1c50.8-10.9,82.7-10.5,134.3-9
		c62.4,1.9,75.1-17.3,113.1-59.2c33.1-36.5,91.2-42.4,137.6-50.3c17-2.9,33.4-6,50.5-6.6c-17,1.6-33.2,5.6-49.9,9.4
		c-42.6,9.9-100.9,19.2-129.6,54.8c-38.9,48.2-53.7,69.4-122,71.2c-29.9,0.8-49,0.9-78.4,5.4c-53.5,8.1-114.8,13.6-160.3,43.2
		c-41.9,27.4-55.2,41.6-103.7,58.2C532.3,1108.1,476.3,1102,413.4,1127L413.4,1127z"/>
	<path class="st0" d="M879.8,656c-17.3-17.6-34.4-34.8-52.4-51.6c-19.5-17.4-37.2-30-57.9-45.5c-20.2-15.3-38.9-32.5-55.9-51.4
		c-23-26.7-41.4-53.1-59.5-83.4c-15.8-27.4-32.2-58.7-43.7-88.2c-0.3-0.8-0.6-1.8-0.9-2.6c-10.1-21.5-21.4-38.8-32.9-59.2
		c-5.1-8.6-47.2-83.9-55.9-81.4c-17,28-0.3,76.2,10.5,103.2c12,24.9,24,39.2,40,61.1c1.7,2.1,3.2,4.1,4.9,6.3
		c18.8,24.8,35.8,51.2,54.7,76.1c22.2,28.8,44.2,54.6,70.5,79.7c20.2,19.5,38.2,33.6,61.5,49.1c22.1,14.4,38.8,24.9,59.3,42.2
		c18.2,15.1,35.2,31.4,52.1,47.8c11,10.7,21.8,21.5,32.7,32.4c24.6,24.7,48.8,49.5,73.1,74.5c-23.3-26-46.6-51.7-70.3-77.2
		C900,677.1,889.8,666.5,879.8,656L879.8,656z"/>
	<path class="st1" d="M705.7,482.3c-9.4-24.2-22.1-46.6-35.1-69c-16.8-28.7-33.8-58-54.9-83.9c-4.7-6.1-9.6-11.9-14.9-17.7
		c-7.6-7.4-44.1-29.4-40.2-12.3c6,11.4,32.4,27.6,43.8,37c1.4,1,2.7,1.9,4.1,2.8c24.8,19,42.9,49.7,58.8,76.2
		c12.3,21.5,24.7,42.2,35.4,64.5c4,10,7.1,19.5,7.9,30.2c0.8,3.8,1.1,7.7,0.9,11.6c0.6-4.1,0.6-8.2-0.1-12.3
		C711.4,499.6,709,491.4,705.7,482.3L705.7,482.3z"/>
	<path class="st0" d="M705.7,482.3l0.7,0.3c-9.6-24.3-22.4-46.9-35.4-69.4c-5-8.5-10-17-15.1-25.5c-12.4-20.4-24.8-39.7-39.8-58.5
		c-4.8-6.3-9.8-12.2-15.1-18.1c-6.4-6.8-14.2-12-22.9-15.5c-3.9-1.4-12.9-4.5-16.8-2.3c-0.8,0.4-1.5,1.1-1.6,2
		c-0.1,1.4,0.1,2.7,0.6,4c0.2,0.6,0.5,1.1,0.8,1.6c1,1.7,2.1,3.3,3.4,4.9c2.9,2.9,6,5.7,9.2,8.3c10.1,7.8,20.3,14.4,30.4,22.7
		c1.6,1.1,3.2,2.1,4.7,3.2c19.5,13.9,37.1,41.1,49.6,61.2c2.9,4.8,6,9.7,8.9,14.5c12.4,21,24.3,42,34.9,64c0.2,0.1,0.5,0.2,0.7,0.2
		c-0.2-0.1-0.5-0.2-0.7-0.4c4.1,10.3,7.3,20.2,7.9,31.3c0.7,3.3,0.9,6.6,0.7,9.9c0.6,0.6,1.2,1.1,1.8,1.7c0.8-4.5,0.7-9.2-0.2-13.7
		c-0.5-9.3-2.7-17.2-5.9-26.1L705.7,482.3c-0.3-0.1-0.5-0.3-0.7-0.5c3.4,9.5,5.8,18.2,5.9,28.2c0.6,3.6,0.5,7.2-0.1,10.7
		c0.3,0.4,0.6,0.7,0.9,1c0.3,0.2,0.6,0.5,0.9,0.7c0.2-4.3-0.1-8.7-1.1-12.9c-1-10.5-4.1-19.5-8.1-29.3c-10.7-22.3-22.9-43.7-35.7-65
		c-2.8-4.8-5.8-9.7-8.7-14.5c-12.6-20.3-30.7-48.3-50.4-62.2c-1.2-0.8-2.4-1.6-3.5-2.4c-7.7-6.5-15.4-11.8-23.5-17.6
		c-4.2-3.1-8.5-6.1-12.4-9.6c-1.6-1.4-3.2-2.9-4.6-4.5c-1-1.2-2-2.5-2.8-3.8c-0.1-0.4-0.4-0.7-0.5-1.1c-0.4-0.8-0.5-1.7-0.2-2.5
		c0.1-0.8,0.7-1.5,1.4-1.9c3.9-2.1,12.6,0.7,16.4,2.1c8.4,3.2,16,8.3,22.2,14.9c5,5.4,10.1,11.4,14.6,17.4
		c15,18.4,27.4,38,39.8,58.3c5.1,8.4,10.3,17,15.1,25.5c12.4,22.4,25.6,44.2,34.6,68.2C705.2,482,705.5,482.1,705.7,482.3
		L705.7,482.3z"/>
	<path class="st1" d="M792.1,606c-14.8-6.4-28.1-12.2-42.2-20.1c-25.6-15.1-43.5-31.1-63.4-53c-16.7-19.4-29.3-38-42-60.1
		c-5.9-11.3-9.5-23.4-9.6-36.1c-0.1-4.5,1.3-13.5,7-6.6c0.4,0.5,0.7,1,1.1,1.4c9,14.9,16,41.8,23.8,59.5
		c6.3,13.8,14.1,26.8,23.3,38.8c19,22.9,36.1,38.5,61.6,53.9c12.5,7.3,25,13.1,37.8,19.6c9.4,4.2,18.9,8.3,28.6,11.9
		c4.5,0.6,8.2,1.2,12.6,0.6c-4.4,0.9-8.9,1-13.4,0.1C808.8,612.9,800.4,609.5,792.1,606L792.1,606z"/>
	<path class="st0" d="M792.1,606c-0.1-0.2-0.3-0.5-0.4-0.7c-14.5-6.3-27.8-11.8-41.6-19.7c-16.8-9.8-29.5-19.7-43.8-32.9
		c-7-6.5-13.2-13-19.6-20.1c-16.5-19.2-29.2-37.9-41.8-59.9c-2.3-4.3-4.2-8.7-5.7-13.4c-2.1-6.4-3.3-13.1-3.5-19.8
		c-0.1-1.2,0-2.2,0-3.4c0-1.9,0.6-6.1,2.2-7.2c0.5-0.5,1.3-0.5,1.9-0.1c0.8,0.4,1.5,1,2,1.8c0.2,0.4,0.6,0.7,0.8,1.1
		c0.1,0.1,0.1,0.2,0.2,0.3c2.2,3.6,4,7.4,5.4,11.3c3.2,8,6,16.3,8.9,24.3c2.5,7.7,5.4,15.4,8.6,22.8c6.4,14,14.4,27.2,23.8,39.4
		c8.9,11,18.7,21.2,29.3,30.5c10.1,8.8,20.9,16.6,32.3,23.5c12.6,7.4,25.3,13.2,38.3,19.7l0,0c0.1,0,0.1,0,0.1,0.1
		c9.2,4,18.5,8.1,27.8,11.8c4.8,0.7,8.9,1.5,13.8,0.9c-0.2-0.2-0.5-0.6-0.7-0.8l-0.7-0.7c-4.2,1.1-7.9,0.8-12.2,0.4
		c-8.8-3-17.5-6.5-26.1-10.2C791.7,605.4,791.9,605.8,792.1,606c0.1,0.2,0.2,0.4,0.3,0.6c8.1,3.4,16.1,6.8,24.4,9.8
		c5,0.6,9.6,1.3,14.5,0.1c-0.5-0.4-0.8-0.9-1.3-1.4c-3.9,0.4-7.8,0.2-11.6-0.6c-9.9-3.7-19.7-7.8-29.4-12.1l0.4,0.7
		c0-0.2-0.1-0.5-0.2-0.7c-12.8-6.2-25.1-11.9-37.3-19.1c-11.5-6.8-22.3-14.7-32.4-23.4c-10.6-9.3-20.4-19.5-29.3-30.4
		c-9-11.8-16.7-24.6-22.9-38.2c-4.5-9.9-8-20.7-11.7-31c-1.8-5.3-3.7-10.7-5.9-16c-1.6-4.4-3.7-8.7-6.2-12.7c0-0.1-0.2-0.4-0.2-0.5
		c-0.5-0.6-0.8-1.1-1.3-1.6c-0.8-1.2-1.9-2.2-3.2-2.8c-0.7-0.3-1.5-0.3-2.2,0.1c-1.6,1-2.1,4.1-2.2,5.9c-0.2,1.4-0.3,2.9-0.2,4.4
		c0.1,4.6,0.7,9.2,1.6,13.7c1.6,7.6,4.4,14.8,8.2,21.6c12.8,22.3,25.5,41.2,42.3,60.7c6.4,7.1,12.6,13.6,19.6,20.1
		c14.3,13.2,27.1,23.1,43.8,32.9c14.3,8.2,27.9,14,42.8,20.4C792.3,606.3,792.2,606.1,792.1,606L792.1,606z"/>
	<path class="st0" d="M839.9,812.5c-31.9-41.8-48.6-64-72.9-112.4c-27.5-54.9-83.1-70.3-120.6-127c-30-45.4-40-81.5-60.4-130.5
		c-21.9-52.8-54.6-28.7-59.8-58.1c-1.9-10.1,3.1-23.8,5.7-33.3c-1.9,9.2-5.9,23.3-3.6,32.8c6.8,26.8,38.4,1.3,65.2,55.3
		c30,60.4,37.8,89,82.4,141.7c35.3,41.8,78.7,66.5,99.2,115.4C796.1,746,811.1,768.9,839.9,812.5L839.9,812.5z"/>
	<path class="st0" d="M985.8,770.3c49.4-26,85.3-47.8,132.2-76.9c50.4-31.3,79.1-25.9,135.2-22.4c33.1,1.9,34.5-1.4,63.9-16.5
		c-8.1,5.8-21.1,15.6-30.4,19.7c-29.9,13.2-75,0.7-129.2,25.1C1098.2,726.2,1047.3,748.2,985.8,770.3L985.8,770.3z"/>
	<path class="st0" d="M1326.4,644.7c4.6-21.5-38.8-17.8,7.1-85.6c50.3-74.4,150-65.9,170.2,19c14.3,60.2-43.4,86.8-90.3,102.9
		c-18.3,6.1-17.1,6.7-28.4,22.6c9.7-17.7,8.6-18.1,26.9-26.8c44.9-21.5,101.5-55.6,62-110.7c-36.1-50.4-93.8-44.9-132.1-0.4
		C1291.4,624.2,1333.7,623.3,1326.4,644.7L1326.4,644.7z"/>
	<path class="st0" d="M1277.8,907.6c-0.6,8.1-1.3,16.3-2.1,24.5c-2.2,18.4-4.6,34.5-5.3,53.2c-0.5,24,1.4,47.6,3.3,71.5
		c1.5,19.2,4.9,48.3-2.4,66.4c-2.7,6-5.6,9.1-11.4,11.8c-2.7,1-5.6,1.7-8.5,2c-5.1,0.6-10,1.3-15,2.1c-11.5,1.7-80,19.3-80.7,32.1
		c18.8,26.8,65.9,17.4,91.5,10.1c9.1-3.1,16.3-6,24.5-11.2c3.2-2.1,6.2-4.4,9-6.9c10.4-9.6,15.6-18.4,18.5-32.4
		c2.9-25.6-3.6-51.1-8.7-76.2c-4.7-23.1-9-45.8-10.7-69.4c-0.7-18.5,0.7-34.4,1.9-52.7c0.5-7.8,0.8-15.6,1.1-23.4
		c0.2-9.9,0.2-20.1,0.7-30c0.3-20.2,1.2-40.3,1.9-60.5c-1.9,20.1-3.6,40.1-5.3,60.4C1279.2,888.5,1278.6,898.1,1277.8,907.6
		L1277.8,907.6z"/>
	<path class="st1" d="M1293.1,965.7c2,6.4,3.6,13,4.9,19.6c5.4,21.9,7.2,45.1,8.1,67.6c0.5,11.2,0.4,22.5-0.4,33.6
		c-1.8,12.8-15.3,32.4-18.8,22.4c-0.1-6.4,9.1-30.5,11.2-39.8c1-5.2,1.8-10.4,2.2-15.6c2-23.8,0.2-45-4.7-68.3
		c-1.1-5.8-2.1-11.6-3.3-17.3c-2.2-8-6-18.1-12.7-23.4C1286.4,948.9,1290.6,958.2,1293.1,965.7L1293.1,965.7z"/>
	<path class="st0" d="M1293.1,965.7c-0.1,0.1-0.1,0.2-0.3,0.3c1.9,6.3,3.5,12.7,4.7,19.2c3.3,12.9,5,25.5,6.3,38.8
		c0.9,9.7,1.5,19.3,2,28.9c0.5,11.1,0.3,22.3-0.4,33.4c-0.3,3.1-1.1,6.1-2.2,9c-1.5,4.2-3.9,8-7,11.2c-1.5,1.6-4.6,4.1-7,4
		c-0.5,0-1-0.1-1.4-0.4c-0.3-0.4-0.5-0.9-0.6-1.4c-0.1-0.3-0.2-0.7-0.1-1c0.3-2.4,0.8-4.8,1.5-7.1c1.7-5.1,3.6-10.3,5.2-15.3
		c1.8-5.1,3.3-10.3,4.6-15.6c1.1-5.3,1.8-10.8,2.2-16.2c1.1-12.3,1.1-24.7,0-37.1c-0.8-10.5-2.4-20.9-4.8-31.2
		c-1-5.9-2-11.8-3.2-17.6h-0.1v-0.1c-2.1-8.2-6-18.3-12.9-23.6c0,0.2-0.1,0.4-0.1,0.6c-0.1,0.2-0.2,0.5-0.1,0.7
		c6.9,4.2,11,13.5,13.4,20.9c0.1-0.1,0.1-0.4,0.2-0.5s0.3-0.2,0.3-0.4c-2.4-7.5-6.5-17-13.6-21.4c-0.1,0.4-0.3,0.8-0.4,1.2
		c6.8,5.3,10.5,15.1,12.8,23.3c0.1-0.3,0.1-0.4,0.2-0.5c-0.1,0.1-0.1,0.2-0.2,0.4c1.2,5.5,2.2,11.3,3.2,17
		c2.3,10.3,3.9,20.8,4.9,31.3c1,12.3,1,24.7,0,37c-0.6,5.2-1.3,10.1-2.4,15.2c-1.6,7.1-3.7,14.1-6.3,21c-1,3.3-2.2,6.6-3.3,10
		c-0.9,2.6-1.4,5.2-1.6,7.9c0,0.4,0,0.9,0.1,1.3c0.1,0.8,0.4,1.6,0.8,2.2c0.5,0.4,1,0.6,1.6,0.6c1.7,0,3.3-0.7,4.6-1.8
		c3.2-2.1,5.9-5.8,7.8-9.2c2.4-4.3,3.9-9.1,4.5-14.1c0.7-11.3,0.8-22.7,0.3-34c-0.3-9.7-1-19.1-1.9-28.8
		c-1.3-12.8-2.9-26.3-6.3-38.8c-1.3-6.7-3-13.4-5-20c0,0.1-0.1,0.2-0.3,0.4L1293.1,965.7z"/>
	<path class="st0" d="M1366.7,755.7c-5,56.6-13,107.2-20.4,163.1c-6.8,50.8-3.8,99.7-11.8,153.3c-4.9,32.8-13.4,81.3-33.1,109
		c18.7-33.6,20.7-94.1,20.9-131.5c0.2-60-9.5-72.3,6-134.4C1341.9,860.7,1355.4,811.3,1366.7,755.7L1366.7,755.7z"/>
	<path class="st0" d="M1235.1,920.7c-0.7,3.2-1.3,6.3-1.8,9.5c-2.9,18.9-2.8,37.8-2.2,56.8c0.9,23.5,3.8,51.1,1.3,74.2
		c-0.7,6.2-1.6,12.9-5.4,18.1c-1.5,2.5-4.1,4.2-6.9,4.7c-6.1,0.9-14.1,0.1-20.3-0.6c-5.9-0.7-11.8-0.6-17.7,0.1
		c-16.3,2.1-64.3,23.9-62,37.7c17.4,20.1,48.8,11.3,70.4,4.6c6-1.8,12.2-3.3,18.2-5.2c9-2.7,16.3-5.1,24.5-10.1
		c8.2-5.3,13-10.8,16.9-19.9c3.2-9.9,3.4-18.3,2.9-28.6c-3.1-25.2-8.6-50.3-12.3-75.6c-2.1-18.6-3.4-36.7-2-55.5
		c0.3-2.7,0.7-5.3,1.2-8c1.3-7.9,3.1-15.4,3.9-23.4c1.1-15.3,0.6-31.4,0.3-46.9c-0.7,15.2-1.2,31.4-3.7,46.5
		C1239,906.8,1236.9,913.3,1235.1,920.7L1235.1,920.7z"/>
	<path class="st1" d="M1251.9,964.5c2.9,6.7,5.3,13.6,7,20.7c7.1,24.6,9.3,52.1,3.5,77.1c-0.1,1.2-0.3,2.4-0.6,3.5
		c-5.3,17.7-21.7,22.6-22.4,15.6c0.5-2,9.1-15.3,11.1-19.6c2.2-2.9,4.1-6.1,5.8-9.4c8.8-21.5,6-45.2,0.3-67.2
		c-1.3-6.4-3.1-12.6-5.2-18.8c-3-7.2-7.5-14.8-14.5-18.5C1243.8,951,1248.6,957.8,1251.9,964.5L1251.9,964.5z"/>
	<path class="st1" d="M1264.2,1073.3c-2.1,4.8-3.8,9.9-5.1,15c-5.1,17.8-6.7,37.8-2.6,56.1c0.1,0.7,0.3,1.6,0.5,2.5
		c3.9,13,15.8,16.4,16.3,11.4c-0.4-1.5-6.6-11.2-8.1-14.3c-1.6-2.1-3-4.4-4.1-6.8c-6.5-15.6-4.5-32.8-0.3-48.8
		c0.9-4.7,2.2-9.2,3.8-13.7c2.1-5.2,5.4-10.6,10.5-13.5C1270,1063.5,1266.5,1068.4,1264.2,1073.3L1264.2,1073.3z"/>
	<path class="st1" d="M1225.3,1027.7c-3.2,4.2-6.1,8.7-8.5,13.4c-9.2,16.2-15.4,35.2-15.6,53.9c-0.1,0.9-0.1,1.7-0.1,2.6
		c0.7,13.5,11.4,19.7,13.1,14.9c0-1.4-3.8-12.4-4.5-15.7c-1-2.5-1.9-5.1-2.5-7.7c-2.5-16.6,3.4-32.9,11.2-47.5
		c2.1-4.3,4.3-8.4,6.9-12.4c3.3-4.6,7.8-9.1,13.5-10.6C1233.2,1019.6,1228.7,1023.5,1225.3,1027.7L1225.3,1027.7z"/>
	<path class="st0" d="M1251.9,964.5c-0.1,0.1-0.2,0.2-0.3,0.4c2.9,6.6,5.3,13.4,7,20.3c3.2,10.6,5.3,21.5,6.1,32.6
		c1.2,15.3,1.2,29.4-2.5,44.5c-0.2,1.1-0.5,2.3-0.7,3.3c-0.7,3.1-1.9,6-3.7,8.6c-2.3,3.5-5.4,6.4-9.2,8.3c-2,0.9-5.3,1.9-7.6,0.9
		c-0.3-0.2-0.8-0.3-1.1-0.8c-0.3-0.3-0.4-0.8-0.2-1.2c0-0.2,0-0.5,0.1-0.7c0.4-1.5,2-3.6,2.9-5c2.9-4,5.4-8.3,7.5-12.9
		c0.1,0,0.6-1,0.6-1c2.2-2.8,4-5.8,5.6-9c5.7-12.4,6.4-28.2,5.1-41.7c-0.7-8.8-2.3-17.4-4.7-25.9c-1.3-6.1-3.3-13.1-5.2-19h-0.1
		v-0.1c-2.9-7.2-7.6-14.8-14.8-18.7v0.5c-0.1,0.2-0.1,0.4-0.1,0.6c7,2.9,11.8,9.7,14.9,16.3C1251.7,964.7,1251.8,964.6,1251.9,964.5
		c0.2-0.1,0.2-0.2,0.2-0.3c-3.2-6.9-8-13.6-15.3-16.7c0,0.4-0.1,0.6-0.1,0.9c7,3.9,11.5,11.3,14.4,18.5c0.1-0.1,0.2-0.3,0.2-0.4
		c0,0.1-0.1,0.2-0.2,0.4c2,6.1,3.7,12.2,5.1,18.4c2.4,8.5,4,17.2,4.8,26c1.2,13.1,0.6,28.7-5,40.9c-1.7,3.4-3.7,6.7-6,9.7
		c-0.8,1.8-1.7,3.4-2.5,5.1c-1.5,2.8-3.3,5.4-5.1,8.1c-1.2,1.7-2.3,3.5-3.2,5.4c-0.1,0.3-0.2,0.7-0.2,1.1c-0.1,0.6,0,1.3,0.4,1.8
		c0.3,0.5,0.8,0.8,1.3,1.1c1.5,0.6,3.1,0.6,4.7,0.3c3.7-0.9,7.1-2.8,9.7-5.6c3.4-3.6,5.8-8,7-12.9c0-0.4,0.7-3.9,0.7-3.9
		c3.7-15.2,3.7-29.2,2.5-44.6c-0.9-11-2.9-21.9-6-32.5c-1.7-7.2-4.1-14.3-7.2-21C1252,964.3,1251.9,964.4,1251.9,964.5L1251.9,964.5
		z"/>
	<path class="st0" d="M1264.2,1073.3c0.1,0,0.2,0.1,0.2,0.2c-2.1,4.8-3.8,9.7-5,14.8c-2.4,7.7-3.9,15.6-4.5,23.6
		c-0.9,11.2-1,21.4,1.8,32.4c0.1,0.8,0.4,1.6,0.5,2.5c0.5,2.2,1.4,4.4,2.7,6.3c1.6,2.6,3.9,4.7,6.6,6c1.5,0.7,3.9,1.3,5.6,0.7
		c0.3-0.2,0.6-0.4,0.8-0.6c0.1-0.3,0.1-0.6,0.1-0.9c0-0.2,0-0.3-0.1-0.5c-0.5-1.3-1.3-2.5-2.1-3.5c-2.1-3-3.9-6.1-5.6-9.3
		c-0.1-0.3-0.2-0.6-0.3-0.9c-1.5-2.1-2.9-4.3-4-6.6c-4.1-9-4.6-20.4-3.8-30.2c0.6-6.3,1.8-12.6,3.5-18.8c1-4.7,2.2-9.4,3.8-14l0,0
		c2.2-5.3,5.6-10.7,10.8-13.6v0.4c0.1,0.1,0.1,0.2,0.1,0.3c-5.1,2.2-8.6,7.1-10.9,11.9C1264.4,1073.3,1264.3,1073.3,1264.2,1073.3
		c-0.1-0.2,0-0.4-0.1-0.4c2.4-5,5.9-9.9,11.1-12.2c0,0.3,0.1,0.5,0.1,0.7c-5.1,2.8-8.4,8.2-10.5,13.5c0-0.1-0.1-0.2-0.1-0.3
		c0,0.1,0.1,0.1,0.1,0.2c-1.4,4.5-2.6,8.9-3.6,13.5c-1.8,6.1-3,12.4-3.6,18.8c-0.8,9.7-0.5,20.9,3.7,29.8c1.2,2.5,2.7,4.9,4.4,7.1
		c0.6,1.2,1.2,2.5,1.8,3.7c1.2,2,2.4,3.9,3.7,5.9c0.9,1.2,1.7,2.6,2.4,4c0.1,0.2,0.1,0.5,0.1,0.7c0.1,0.4,0,0.9-0.2,1.3
		c-0.2,0.3-0.6,0.6-1,0.7c-1.1,0.4-2.3,0.5-3.4,0.3c-2.7-0.6-5.1-2-6.9-4c-2.5-2.6-4.3-5.8-5.1-9.3c-0.1-0.3-0.6-2.8-0.6-2.8
		c-2.6-11.1-2.7-21.3-1.8-32.5c0.7-8,2.2-15.9,4.4-23.6c1.2-5.2,3-10.3,5.2-15.2C1264.1,1073,1264.1,1073.1,1264.2,1073.3
		L1264.2,1073.3z"/>
	<path class="st0" d="M1225.3,1027.7c0,0.1,0.1,0.2,0.1,0.3c-3.2,4.2-6,8.6-8.3,13.3c-4,6.9-7.3,14.2-9.8,21.8
		c-3.6,10.8-5.9,20.7-5.8,32c-0.1,0.8-0.1,1.6-0.1,2.4c-0.1,2.3,0.3,4.6,1.2,6.7c0.9,2.9,2.6,5.5,5,7.5c1.3,1,3.5,2.2,5.2,2
		c0.4-0.1,0.7-0.2,1-0.5c0.2-0.2,0.4-0.5,0.4-0.8v-0.5c-0.3-1.4-0.8-2.7-1.3-4c-1.3-3.4-2.4-6.8-3.2-10.4l-0.1-0.8
		c-1.1-2.4-1.9-4.8-2.5-7.3c-1.9-9.7,0.4-21,3.4-30.2c2.1-6,4.7-11.9,7.8-17.5c2-4.4,4.4-8.6,7-12.6l0,0c3.4-4.6,7.9-9.2,13.6-10.7
		v0.8c-5.6,0.8-10,4.9-13.4,9c0-0.1-0.1-0.3-0.1-0.3S1225.3,1027.8,1225.3,1027.7c3.4-4.3,8-8.4,13.6-9.3v0.7
		c-5.6,1.5-10,6-13.4,10.6c0-0.1-0.1-0.2-0.1-0.3c0,0.1,0.1,0.2,0.1,0.2c-2.5,4-4.6,8-6.8,12.3c-3.1,5.6-5.7,11.4-7.8,17.5
		c-3.1,9.1-5.3,20.2-3.4,29.8c0.6,2.7,1.5,5.3,2.6,7.8c0.2,1.4,0.5,2.7,0.9,4c0.6,2.2,1.3,4.4,2.1,6.6c0.6,1.4,1,2.9,1.3,4.4
		c0.1,0.3,0.1,0.6,0,0.8c0,0.4-0.2,0.9-0.5,1.2c-0.3,0.3-0.7,0.5-1.2,0.6c-1.1,0.1-2.3-0.2-3.3-0.7c-2.5-1.2-4.6-3.1-5.9-5.6
		c-1.9-3.1-2.8-6.7-2.7-10.3c0-0.2,0.1-2.8,0.1-2.8c0-11.3,2.4-21.3,5.8-32c2.6-7.6,5.8-15,9.8-22c2.4-4.8,5.3-9.3,8.6-13.6
		c0,0.1,0.1,0.1,0.1,0.3L1225.3,1027.7z"/>
</g>
</svg>
